<?xml version="1.0" encoding="utf-8" standalone="no"?>
<!DOCTYPE svg PUBLIC "-//W3C//DTD SVG 1.1//EN"
  "http://www.w3.org/Graphics/SVG/1.1/DTD/svg11.dtd">
<svg xmlns:xlink="http://www.w3.org/1999/xlink" width="864pt" height="576pt" viewBox="0 0 864 576" xmlns="http://www.w3.org/2000/svg" version="1.1">
 <metadata>
  <rdf:RDF xmlns:dc="http://purl.org/dc/elements/1.1/" xmlns:cc="http://creativecommons.org/ns#" xmlns:rdf="http://www.w3.org/1999/02/22-rdf-syntax-ns#">
   <cc:Work>
    <dc:type rdf:resource="http://purl.org/dc/dcmitype/StillImage"/>
    <dc:date>2022-06-03T18:16:48.771410</dc:date>
    <dc:format>image/svg+xml</dc:format>
    <dc:creator>
     <cc:Agent>
      <dc:title>Matplotlib v3.5.1, https://matplotlib.org/</dc:title>
     </cc:Agent>
    </dc:creator>
   </cc:Work>
  </rdf:RDF>
 </metadata>
 <defs>
  <style type="text/css">*{stroke-linejoin: round; stroke-linecap: butt}</style>
 </defs>
 <g id="figure_1">
  <g id="patch_1">
   <path d="M 0 576 
L 864 576 
L 864 0 
L 0 0 
L 0 576 
z
" style="fill: none"/>
  </g>
  <g id="axes_1">
   <g id="patch_2">
    <path d="M 108 504 
L 777.6 504 
L 777.6 69.12 
L 108 69.12 
z
" style="fill: #ffffff"/>
   </g>
   <g id="patch_3">
    <path d="M 108 73.4688 
L 745.714286 73.4688 
L 745.714286 108.2592 
L 108 108.2592 
z
" clip-path="url(#p9ffdae87ff)" style="fill: #84aad0"/>
   </g>
   <g id="patch_4">
    <path d="M 108 116.9568 
L 707.98317 116.9568 
L 707.98317 151.7472 
L 108 151.7472 
z
" clip-path="url(#p9ffdae87ff)" style="fill: #84aad0"/>
   </g>
   <g id="patch_5">
    <path d="M 108 160.4448 
L 680.605982 160.4448 
L 680.605982 195.2352 
L 108 195.2352 
z
" clip-path="url(#p9ffdae87ff)" style="fill: #84aad0"/>
   </g>
   <g id="patch_6">
    <path d="M 108 203.9328 
L 664.261424 203.9328 
L 664.261424 238.7232 
L 108 238.7232 
z
" clip-path="url(#p9ffdae87ff)" style="fill: #84aad0"/>
   </g>
   <g id="patch_7">
    <path d="M 108 247.4208 
L 592.027503 247.4208 
L 592.027503 282.2112 
L 108 282.2112 
z
" clip-path="url(#p9ffdae87ff)" style="fill: #84aad0"/>
   </g>
   <g id="patch_8">
    <path d="M 108 290.9088 
L 579.855193 290.9088 
L 579.855193 325.6992 
L 108 325.6992 
z
" clip-path="url(#p9ffdae87ff)" style="fill: #84aad0"/>
   </g>
   <g id="patch_9">
    <path d="M 108 334.3968 
L 565.516918 334.3968 
L 565.516918 369.1872 
L 108 369.1872 
z
" clip-path="url(#p9ffdae87ff)" style="fill: #84aad0"/>
   </g>
   <g id="patch_10">
    <path d="M 108 377.8848 
L 555.107538 377.8848 
L 555.107538 412.6752 
L 108 412.6752 
z
" clip-path="url(#p9ffdae87ff)" style="fill: #84aad0"/>
   </g>
   <g id="patch_11">
    <path d="M 108 421.3728 
L 540.004888 421.3728 
L 540.004888 456.1632 
L 108 456.1632 
z
" clip-path="url(#p9ffdae87ff)" style="fill: #84aad0"/>
   </g>
   <g id="patch_12">
    <path d="M 108 464.8608 
L 537.169234 464.8608 
L 537.169234 499.6512 
L 108 499.6512 
z
" clip-path="url(#p9ffdae87ff)" style="fill: #84aad0"/>
   </g>
   <g id="matplotlib.axis_1">
    <g id="xtick_1">
     <g id="line2d_1">
      <defs>
       <path id="m977a3bfa92" d="M 0 0 
L 0 4.8 
" style="stroke: #000000"/>
      </defs>
      <g>
       <use xlink:href="#m977a3bfa92" x="108" y="504" style="stroke: #000000"/>
      </g>
     </g>
     <g id="text_1">
      <!-- 0 -->
      <g transform="translate(101.00125 529.016562)scale(0.22 -0.22)">
       <defs>
        <path id="DejaVuSans-30" d="M 2034 4250 
Q 1547 4250 1301 3770 
Q 1056 3291 1056 2328 
Q 1056 1369 1301 889 
Q 1547 409 2034 409 
Q 2525 409 2770 889 
Q 3016 1369 3016 2328 
Q 3016 3291 2770 3770 
Q 2525 4250 2034 4250 
z
M 2034 4750 
Q 2819 4750 3233 4129 
Q 3647 3509 3647 2328 
Q 3647 1150 3233 529 
Q 2819 -91 2034 -91 
Q 1250 -91 836 529 
Q 422 1150 422 2328 
Q 422 3509 836 4129 
Q 1250 4750 2034 4750 
z
" transform="scale(0.015625)"/>
       </defs>
       <use xlink:href="#DejaVuSans-30"/>
      </g>
     </g>
    </g>
    <g id="xtick_2">
     <g id="line2d_2">
      <g>
       <use xlink:href="#m977a3bfa92" x="198.750108" y="504" style="stroke: #000000"/>
      </g>
     </g>
     <g id="text_2">
      <!-- 10 -->
      <g transform="translate(184.752608 529.016562)scale(0.22 -0.22)">
       <defs>
        <path id="DejaVuSans-31" d="M 794 531 
L 1825 531 
L 1825 4091 
L 703 3866 
L 703 4441 
L 1819 4666 
L 2450 4666 
L 2450 531 
L 3481 531 
L 3481 0 
L 794 0 
L 794 531 
z
" transform="scale(0.015625)"/>
       </defs>
       <use xlink:href="#DejaVuSans-31"/>
       <use xlink:href="#DejaVuSans-30" x="63.623047"/>
      </g>
     </g>
    </g>
    <g id="xtick_3">
     <g id="line2d_3">
      <g>
       <use xlink:href="#m977a3bfa92" x="289.500217" y="504" style="stroke: #000000"/>
      </g>
     </g>
     <g id="text_3">
      <!-- 20 -->
      <g transform="translate(275.502717 529.016562)scale(0.22 -0.22)">
       <defs>
        <path id="DejaVuSans-32" d="M 1228 531 
L 3431 531 
L 3431 0 
L 469 0 
L 469 531 
Q 828 903 1448 1529 
Q 2069 2156 2228 2338 
Q 2531 2678 2651 2914 
Q 2772 3150 2772 3378 
Q 2772 3750 2511 3984 
Q 2250 4219 1831 4219 
Q 1534 4219 1204 4116 
Q 875 4013 500 3803 
L 500 4441 
Q 881 4594 1212 4672 
Q 1544 4750 1819 4750 
Q 2544 4750 2975 4387 
Q 3406 4025 3406 3419 
Q 3406 3131 3298 2873 
Q 3191 2616 2906 2266 
Q 2828 2175 2409 1742 
Q 1991 1309 1228 531 
z
" transform="scale(0.015625)"/>
       </defs>
       <use xlink:href="#DejaVuSans-32"/>
       <use xlink:href="#DejaVuSans-30" x="63.623047"/>
      </g>
     </g>
    </g>
    <g id="xtick_4">
     <g id="line2d_4">
      <g>
       <use xlink:href="#m977a3bfa92" x="380.250325" y="504" style="stroke: #000000"/>
      </g>
     </g>
     <g id="text_4">
      <!-- 30 -->
      <g transform="translate(366.252825 529.016562)scale(0.22 -0.22)">
       <defs>
        <path id="DejaVuSans-33" d="M 2597 2516 
Q 3050 2419 3304 2112 
Q 3559 1806 3559 1356 
Q 3559 666 3084 287 
Q 2609 -91 1734 -91 
Q 1441 -91 1130 -33 
Q 819 25 488 141 
L 488 750 
Q 750 597 1062 519 
Q 1375 441 1716 441 
Q 2309 441 2620 675 
Q 2931 909 2931 1356 
Q 2931 1769 2642 2001 
Q 2353 2234 1838 2234 
L 1294 2234 
L 1294 2753 
L 1863 2753 
Q 2328 2753 2575 2939 
Q 2822 3125 2822 3475 
Q 2822 3834 2567 4026 
Q 2313 4219 1838 4219 
Q 1578 4219 1281 4162 
Q 984 4106 628 3988 
L 628 4550 
Q 988 4650 1302 4700 
Q 1616 4750 1894 4750 
Q 2613 4750 3031 4423 
Q 3450 4097 3450 3541 
Q 3450 3153 3228 2886 
Q 3006 2619 2597 2516 
z
" transform="scale(0.015625)"/>
       </defs>
       <use xlink:href="#DejaVuSans-33"/>
       <use xlink:href="#DejaVuSans-30" x="63.623047"/>
      </g>
     </g>
    </g>
    <g id="xtick_5">
     <g id="line2d_5">
      <g>
       <use xlink:href="#m977a3bfa92" x="471.000434" y="504" style="stroke: #000000"/>
      </g>
     </g>
     <g id="text_5">
      <!-- 40 -->
      <g transform="translate(457.002934 529.016562)scale(0.22 -0.22)">
       <defs>
        <path id="DejaVuSans-34" d="M 2419 4116 
L 825 1625 
L 2419 1625 
L 2419 4116 
z
M 2253 4666 
L 3047 4666 
L 3047 1625 
L 3713 1625 
L 3713 1100 
L 3047 1100 
L 3047 0 
L 2419 0 
L 2419 1100 
L 313 1100 
L 313 1709 
L 2253 4666 
z
" transform="scale(0.015625)"/>
       </defs>
       <use xlink:href="#DejaVuSans-34"/>
       <use xlink:href="#DejaVuSans-30" x="63.623047"/>
      </g>
     </g>
    </g>
    <g id="xtick_6">
     <g id="line2d_6">
      <g>
       <use xlink:href="#m977a3bfa92" x="561.750542" y="504" style="stroke: #000000"/>
      </g>
     </g>
     <g id="text_6">
      <!-- 50 -->
      <g transform="translate(547.753042 529.016562)scale(0.22 -0.22)">
       <defs>
        <path id="DejaVuSans-35" d="M 691 4666 
L 3169 4666 
L 3169 4134 
L 1269 4134 
L 1269 2991 
Q 1406 3038 1543 3061 
Q 1681 3084 1819 3084 
Q 2600 3084 3056 2656 
Q 3513 2228 3513 1497 
Q 3513 744 3044 326 
Q 2575 -91 1722 -91 
Q 1428 -91 1123 -41 
Q 819 9 494 109 
L 494 744 
Q 775 591 1075 516 
Q 1375 441 1709 441 
Q 2250 441 2565 725 
Q 2881 1009 2881 1497 
Q 2881 1984 2565 2268 
Q 2250 2553 1709 2553 
Q 1456 2553 1204 2497 
Q 953 2441 691 2322 
L 691 4666 
z
" transform="scale(0.015625)"/>
       </defs>
       <use xlink:href="#DejaVuSans-35"/>
       <use xlink:href="#DejaVuSans-30" x="63.623047"/>
      </g>
     </g>
    </g>
    <g id="xtick_7">
     <g id="line2d_7">
      <g>
       <use xlink:href="#m977a3bfa92" x="652.500651" y="504" style="stroke: #000000"/>
      </g>
     </g>
     <g id="text_7">
      <!-- 60 -->
      <g transform="translate(638.503151 529.016562)scale(0.22 -0.22)">
       <defs>
        <path id="DejaVuSans-36" d="M 2113 2584 
Q 1688 2584 1439 2293 
Q 1191 2003 1191 1497 
Q 1191 994 1439 701 
Q 1688 409 2113 409 
Q 2538 409 2786 701 
Q 3034 994 3034 1497 
Q 3034 2003 2786 2293 
Q 2538 2584 2113 2584 
z
M 3366 4563 
L 3366 3988 
Q 3128 4100 2886 4159 
Q 2644 4219 2406 4219 
Q 1781 4219 1451 3797 
Q 1122 3375 1075 2522 
Q 1259 2794 1537 2939 
Q 1816 3084 2150 3084 
Q 2853 3084 3261 2657 
Q 3669 2231 3669 1497 
Q 3669 778 3244 343 
Q 2819 -91 2113 -91 
Q 1303 -91 875 529 
Q 447 1150 447 2328 
Q 447 3434 972 4092 
Q 1497 4750 2381 4750 
Q 2619 4750 2861 4703 
Q 3103 4656 3366 4563 
z
" transform="scale(0.015625)"/>
       </defs>
       <use xlink:href="#DejaVuSans-36"/>
       <use xlink:href="#DejaVuSans-30" x="63.623047"/>
      </g>
     </g>
    </g>
    <g id="xtick_8">
     <g id="line2d_8">
      <g>
       <use xlink:href="#m977a3bfa92" x="743.250759" y="504" style="stroke: #000000"/>
      </g>
     </g>
     <g id="text_8">
      <!-- 70 -->
      <g transform="translate(729.253259 529.016562)scale(0.22 -0.22)">
       <defs>
        <path id="DejaVuSans-37" d="M 525 4666 
L 3525 4666 
L 3525 4397 
L 1831 0 
L 1172 0 
L 2766 4134 
L 525 4134 
L 525 4666 
z
" transform="scale(0.015625)"/>
       </defs>
       <use xlink:href="#DejaVuSans-37"/>
       <use xlink:href="#DejaVuSans-30" x="63.623047"/>
      </g>
     </g>
    </g>
    <g id="text_9">
     <!-- Feature importance -->
     <g transform="translate(325.089375 555.828125)scale(0.24 -0.24)">
      <defs>
       <path id="DejaVuSans-46" d="M 628 4666 
L 3309 4666 
L 3309 4134 
L 1259 4134 
L 1259 2759 
L 3109 2759 
L 3109 2228 
L 1259 2228 
L 1259 0 
L 628 0 
L 628 4666 
z
" transform="scale(0.015625)"/>
       <path id="DejaVuSans-65" d="M 3597 1894 
L 3597 1613 
L 953 1613 
Q 991 1019 1311 708 
Q 1631 397 2203 397 
Q 2534 397 2845 478 
Q 3156 559 3463 722 
L 3463 178 
Q 3153 47 2828 -22 
Q 2503 -91 2169 -91 
Q 1331 -91 842 396 
Q 353 884 353 1716 
Q 353 2575 817 3079 
Q 1281 3584 2069 3584 
Q 2775 3584 3186 3129 
Q 3597 2675 3597 1894 
z
M 3022 2063 
Q 3016 2534 2758 2815 
Q 2500 3097 2075 3097 
Q 1594 3097 1305 2825 
Q 1016 2553 972 2059 
L 3022 2063 
z
" transform="scale(0.015625)"/>
       <path id="DejaVuSans-61" d="M 2194 1759 
Q 1497 1759 1228 1600 
Q 959 1441 959 1056 
Q 959 750 1161 570 
Q 1363 391 1709 391 
Q 2188 391 2477 730 
Q 2766 1069 2766 1631 
L 2766 1759 
L 2194 1759 
z
M 3341 1997 
L 3341 0 
L 2766 0 
L 2766 531 
Q 2569 213 2275 61 
Q 1981 -91 1556 -91 
Q 1019 -91 701 211 
Q 384 513 384 1019 
Q 384 1609 779 1909 
Q 1175 2209 1959 2209 
L 2766 2209 
L 2766 2266 
Q 2766 2663 2505 2880 
Q 2244 3097 1772 3097 
Q 1472 3097 1187 3025 
Q 903 2953 641 2809 
L 641 3341 
Q 956 3463 1253 3523 
Q 1550 3584 1831 3584 
Q 2591 3584 2966 3190 
Q 3341 2797 3341 1997 
z
" transform="scale(0.015625)"/>
       <path id="DejaVuSans-74" d="M 1172 4494 
L 1172 3500 
L 2356 3500 
L 2356 3053 
L 1172 3053 
L 1172 1153 
Q 1172 725 1289 603 
Q 1406 481 1766 481 
L 2356 481 
L 2356 0 
L 1766 0 
Q 1100 0 847 248 
Q 594 497 594 1153 
L 594 3053 
L 172 3053 
L 172 3500 
L 594 3500 
L 594 4494 
L 1172 4494 
z
" transform="scale(0.015625)"/>
       <path id="DejaVuSans-75" d="M 544 1381 
L 544 3500 
L 1119 3500 
L 1119 1403 
Q 1119 906 1312 657 
Q 1506 409 1894 409 
Q 2359 409 2629 706 
Q 2900 1003 2900 1516 
L 2900 3500 
L 3475 3500 
L 3475 0 
L 2900 0 
L 2900 538 
Q 2691 219 2414 64 
Q 2138 -91 1772 -91 
Q 1169 -91 856 284 
Q 544 659 544 1381 
z
M 1991 3584 
L 1991 3584 
z
" transform="scale(0.015625)"/>
       <path id="DejaVuSans-72" d="M 2631 2963 
Q 2534 3019 2420 3045 
Q 2306 3072 2169 3072 
Q 1681 3072 1420 2755 
Q 1159 2438 1159 1844 
L 1159 0 
L 581 0 
L 581 3500 
L 1159 3500 
L 1159 2956 
Q 1341 3275 1631 3429 
Q 1922 3584 2338 3584 
Q 2397 3584 2469 3576 
Q 2541 3569 2628 3553 
L 2631 2963 
z
" transform="scale(0.015625)"/>
       <path id="DejaVuSans-20" transform="scale(0.015625)"/>
       <path id="DejaVuSans-69" d="M 603 3500 
L 1178 3500 
L 1178 0 
L 603 0 
L 603 3500 
z
M 603 4863 
L 1178 4863 
L 1178 4134 
L 603 4134 
L 603 4863 
z
" transform="scale(0.015625)"/>
       <path id="DejaVuSans-6d" d="M 3328 2828 
Q 3544 3216 3844 3400 
Q 4144 3584 4550 3584 
Q 5097 3584 5394 3201 
Q 5691 2819 5691 2113 
L 5691 0 
L 5113 0 
L 5113 2094 
Q 5113 2597 4934 2840 
Q 4756 3084 4391 3084 
Q 3944 3084 3684 2787 
Q 3425 2491 3425 1978 
L 3425 0 
L 2847 0 
L 2847 2094 
Q 2847 2600 2669 2842 
Q 2491 3084 2119 3084 
Q 1678 3084 1418 2786 
Q 1159 2488 1159 1978 
L 1159 0 
L 581 0 
L 581 3500 
L 1159 3500 
L 1159 2956 
Q 1356 3278 1631 3431 
Q 1906 3584 2284 3584 
Q 2666 3584 2933 3390 
Q 3200 3197 3328 2828 
z
" transform="scale(0.015625)"/>
       <path id="DejaVuSans-70" d="M 1159 525 
L 1159 -1331 
L 581 -1331 
L 581 3500 
L 1159 3500 
L 1159 2969 
Q 1341 3281 1617 3432 
Q 1894 3584 2278 3584 
Q 2916 3584 3314 3078 
Q 3713 2572 3713 1747 
Q 3713 922 3314 415 
Q 2916 -91 2278 -91 
Q 1894 -91 1617 61 
Q 1341 213 1159 525 
z
M 3116 1747 
Q 3116 2381 2855 2742 
Q 2594 3103 2138 3103 
Q 1681 3103 1420 2742 
Q 1159 2381 1159 1747 
Q 1159 1113 1420 752 
Q 1681 391 2138 391 
Q 2594 391 2855 752 
Q 3116 1113 3116 1747 
z
" transform="scale(0.015625)"/>
       <path id="DejaVuSans-6f" d="M 1959 3097 
Q 1497 3097 1228 2736 
Q 959 2375 959 1747 
Q 959 1119 1226 758 
Q 1494 397 1959 397 
Q 2419 397 2687 759 
Q 2956 1122 2956 1747 
Q 2956 2369 2687 2733 
Q 2419 3097 1959 3097 
z
M 1959 3584 
Q 2709 3584 3137 3096 
Q 3566 2609 3566 1747 
Q 3566 888 3137 398 
Q 2709 -91 1959 -91 
Q 1206 -91 779 398 
Q 353 888 353 1747 
Q 353 2609 779 3096 
Q 1206 3584 1959 3584 
z
" transform="scale(0.015625)"/>
       <path id="DejaVuSans-6e" d="M 3513 2113 
L 3513 0 
L 2938 0 
L 2938 2094 
Q 2938 2591 2744 2837 
Q 2550 3084 2163 3084 
Q 1697 3084 1428 2787 
Q 1159 2491 1159 1978 
L 1159 0 
L 581 0 
L 581 3500 
L 1159 3500 
L 1159 2956 
Q 1366 3272 1645 3428 
Q 1925 3584 2291 3584 
Q 2894 3584 3203 3211 
Q 3513 2838 3513 2113 
z
" transform="scale(0.015625)"/>
       <path id="DejaVuSans-63" d="M 3122 3366 
L 3122 2828 
Q 2878 2963 2633 3030 
Q 2388 3097 2138 3097 
Q 1578 3097 1268 2742 
Q 959 2388 959 1747 
Q 959 1106 1268 751 
Q 1578 397 2138 397 
Q 2388 397 2633 464 
Q 2878 531 3122 666 
L 3122 134 
Q 2881 22 2623 -34 
Q 2366 -91 2075 -91 
Q 1284 -91 818 406 
Q 353 903 353 1747 
Q 353 2603 823 3093 
Q 1294 3584 2113 3584 
Q 2378 3584 2631 3529 
Q 2884 3475 3122 3366 
z
" transform="scale(0.015625)"/>
      </defs>
      <use xlink:href="#DejaVuSans-46"/>
      <use xlink:href="#DejaVuSans-65" x="52.019531"/>
      <use xlink:href="#DejaVuSans-61" x="113.542969"/>
      <use xlink:href="#DejaVuSans-74" x="174.822266"/>
      <use xlink:href="#DejaVuSans-75" x="214.03125"/>
      <use xlink:href="#DejaVuSans-72" x="277.410156"/>
      <use xlink:href="#DejaVuSans-65" x="316.273438"/>
      <use xlink:href="#DejaVuSans-20" x="377.796875"/>
      <use xlink:href="#DejaVuSans-69" x="409.583984"/>
      <use xlink:href="#DejaVuSans-6d" x="437.367188"/>
      <use xlink:href="#DejaVuSans-70" x="534.779297"/>
      <use xlink:href="#DejaVuSans-6f" x="598.255859"/>
      <use xlink:href="#DejaVuSans-72" x="659.4375"/>
      <use xlink:href="#DejaVuSans-74" x="700.550781"/>
      <use xlink:href="#DejaVuSans-61" x="739.759766"/>
      <use xlink:href="#DejaVuSans-6e" x="801.039062"/>
      <use xlink:href="#DejaVuSans-63" x="864.417969"/>
      <use xlink:href="#DejaVuSans-65" x="919.398438"/>
     </g>
    </g>
   </g>
   <g id="matplotlib.axis_2">
    <g id="ytick_1">
     <g id="text_10">
      <!-- SV INV [1406-2299] (quantile frac) -->
      <g transform="translate(-276.818438 99.222281)scale(0.22 -0.22)">
       <defs>
        <path id="DejaVuSans-53" d="M 3425 4513 
L 3425 3897 
Q 3066 4069 2747 4153 
Q 2428 4238 2131 4238 
Q 1616 4238 1336 4038 
Q 1056 3838 1056 3469 
Q 1056 3159 1242 3001 
Q 1428 2844 1947 2747 
L 2328 2669 
Q 3034 2534 3370 2195 
Q 3706 1856 3706 1288 
Q 3706 609 3251 259 
Q 2797 -91 1919 -91 
Q 1588 -91 1214 -16 
Q 841 59 441 206 
L 441 856 
Q 825 641 1194 531 
Q 1563 422 1919 422 
Q 2459 422 2753 634 
Q 3047 847 3047 1241 
Q 3047 1584 2836 1778 
Q 2625 1972 2144 2069 
L 1759 2144 
Q 1053 2284 737 2584 
Q 422 2884 422 3419 
Q 422 4038 858 4394 
Q 1294 4750 2059 4750 
Q 2388 4750 2728 4690 
Q 3069 4631 3425 4513 
z
" transform="scale(0.015625)"/>
        <path id="DejaVuSans-56" d="M 1831 0 
L 50 4666 
L 709 4666 
L 2188 738 
L 3669 4666 
L 4325 4666 
L 2547 0 
L 1831 0 
z
" transform="scale(0.015625)"/>
        <path id="DejaVuSans-49" d="M 628 4666 
L 1259 4666 
L 1259 0 
L 628 0 
L 628 4666 
z
" transform="scale(0.015625)"/>
        <path id="DejaVuSans-4e" d="M 628 4666 
L 1478 4666 
L 3547 763 
L 3547 4666 
L 4159 4666 
L 4159 0 
L 3309 0 
L 1241 3903 
L 1241 0 
L 628 0 
L 628 4666 
z
" transform="scale(0.015625)"/>
        <path id="DejaVuSans-5b" d="M 550 4863 
L 1875 4863 
L 1875 4416 
L 1125 4416 
L 1125 -397 
L 1875 -397 
L 1875 -844 
L 550 -844 
L 550 4863 
z
" transform="scale(0.015625)"/>
        <path id="DejaVuSans-2d" d="M 313 2009 
L 1997 2009 
L 1997 1497 
L 313 1497 
L 313 2009 
z
" transform="scale(0.015625)"/>
        <path id="DejaVuSans-39" d="M 703 97 
L 703 672 
Q 941 559 1184 500 
Q 1428 441 1663 441 
Q 2288 441 2617 861 
Q 2947 1281 2994 2138 
Q 2813 1869 2534 1725 
Q 2256 1581 1919 1581 
Q 1219 1581 811 2004 
Q 403 2428 403 3163 
Q 403 3881 828 4315 
Q 1253 4750 1959 4750 
Q 2769 4750 3195 4129 
Q 3622 3509 3622 2328 
Q 3622 1225 3098 567 
Q 2575 -91 1691 -91 
Q 1453 -91 1209 -44 
Q 966 3 703 97 
z
M 1959 2075 
Q 2384 2075 2632 2365 
Q 2881 2656 2881 3163 
Q 2881 3666 2632 3958 
Q 2384 4250 1959 4250 
Q 1534 4250 1286 3958 
Q 1038 3666 1038 3163 
Q 1038 2656 1286 2365 
Q 1534 2075 1959 2075 
z
" transform="scale(0.015625)"/>
        <path id="DejaVuSans-5d" d="M 1947 4863 
L 1947 -844 
L 622 -844 
L 622 -397 
L 1369 -397 
L 1369 4416 
L 622 4416 
L 622 4863 
L 1947 4863 
z
" transform="scale(0.015625)"/>
        <path id="DejaVuSans-28" d="M 1984 4856 
Q 1566 4138 1362 3434 
Q 1159 2731 1159 2009 
Q 1159 1288 1364 580 
Q 1569 -128 1984 -844 
L 1484 -844 
Q 1016 -109 783 600 
Q 550 1309 550 2009 
Q 550 2706 781 3412 
Q 1013 4119 1484 4856 
L 1984 4856 
z
" transform="scale(0.015625)"/>
        <path id="DejaVuSans-71" d="M 947 1747 
Q 947 1113 1208 752 
Q 1469 391 1925 391 
Q 2381 391 2643 752 
Q 2906 1113 2906 1747 
Q 2906 2381 2643 2742 
Q 2381 3103 1925 3103 
Q 1469 3103 1208 2742 
Q 947 2381 947 1747 
z
M 2906 525 
Q 2725 213 2448 61 
Q 2172 -91 1784 -91 
Q 1150 -91 751 415 
Q 353 922 353 1747 
Q 353 2572 751 3078 
Q 1150 3584 1784 3584 
Q 2172 3584 2448 3432 
Q 2725 3281 2906 2969 
L 2906 3500 
L 3481 3500 
L 3481 -1331 
L 2906 -1331 
L 2906 525 
z
" transform="scale(0.015625)"/>
        <path id="DejaVuSans-6c" d="M 603 4863 
L 1178 4863 
L 1178 0 
L 603 0 
L 603 4863 
z
" transform="scale(0.015625)"/>
        <path id="DejaVuSans-66" d="M 2375 4863 
L 2375 4384 
L 1825 4384 
Q 1516 4384 1395 4259 
Q 1275 4134 1275 3809 
L 1275 3500 
L 2222 3500 
L 2222 3053 
L 1275 3053 
L 1275 0 
L 697 0 
L 697 3053 
L 147 3053 
L 147 3500 
L 697 3500 
L 697 3744 
Q 697 4328 969 4595 
Q 1241 4863 1831 4863 
L 2375 4863 
z
" transform="scale(0.015625)"/>
        <path id="DejaVuSans-29" d="M 513 4856 
L 1013 4856 
Q 1481 4119 1714 3412 
Q 1947 2706 1947 2009 
Q 1947 1309 1714 600 
Q 1481 -109 1013 -844 
L 513 -844 
Q 928 -128 1133 580 
Q 1338 1288 1338 2009 
Q 1338 2731 1133 3434 
Q 928 4138 513 4856 
z
" transform="scale(0.015625)"/>
       </defs>
       <use xlink:href="#DejaVuSans-53"/>
       <use xlink:href="#DejaVuSans-56" x="63.476562"/>
       <use xlink:href="#DejaVuSans-20" x="131.884766"/>
       <use xlink:href="#DejaVuSans-49" x="163.671875"/>
       <use xlink:href="#DejaVuSans-4e" x="193.164062"/>
       <use xlink:href="#DejaVuSans-56" x="267.96875"/>
       <use xlink:href="#DejaVuSans-20" x="336.376953"/>
       <use xlink:href="#DejaVuSans-5b" x="368.164062"/>
       <use xlink:href="#DejaVuSans-31" x="407.177734"/>
       <use xlink:href="#DejaVuSans-34" x="470.800781"/>
       <use xlink:href="#DejaVuSans-30" x="534.423828"/>
       <use xlink:href="#DejaVuSans-36" x="598.046875"/>
       <use xlink:href="#DejaVuSans-2d" x="661.669922"/>
       <use xlink:href="#DejaVuSans-32" x="697.753906"/>
       <use xlink:href="#DejaVuSans-32" x="761.376953"/>
       <use xlink:href="#DejaVuSans-39" x="825"/>
       <use xlink:href="#DejaVuSans-39" x="888.623047"/>
       <use xlink:href="#DejaVuSans-5d" x="952.246094"/>
       <use xlink:href="#DejaVuSans-20" x="991.259766"/>
       <use xlink:href="#DejaVuSans-28" x="1023.046875"/>
       <use xlink:href="#DejaVuSans-71" x="1062.060547"/>
       <use xlink:href="#DejaVuSans-75" x="1125.537109"/>
       <use xlink:href="#DejaVuSans-61" x="1188.916016"/>
       <use xlink:href="#DejaVuSans-6e" x="1250.195312"/>
       <use xlink:href="#DejaVuSans-74" x="1313.574219"/>
       <use xlink:href="#DejaVuSans-69" x="1352.783203"/>
       <use xlink:href="#DejaVuSans-6c" x="1380.566406"/>
       <use xlink:href="#DejaVuSans-65" x="1408.349609"/>
       <use xlink:href="#DejaVuSans-20" x="1469.873047"/>
       <use xlink:href="#DejaVuSans-66" x="1501.660156"/>
       <use xlink:href="#DejaVuSans-72" x="1536.865234"/>
       <use xlink:href="#DejaVuSans-61" x="1577.978516"/>
       <use xlink:href="#DejaVuSans-63" x="1639.257812"/>
       <use xlink:href="#DejaVuSans-29" x="1694.238281"/>
      </g>
     </g>
    </g>
    <g id="ytick_2">
     <g id="text_11">
      <!-- CNV NEUT [2004415-17284461] (supervised frac) -->
      <g transform="translate(-444.884688 142.710281)scale(0.22 -0.22)">
       <defs>
        <path id="DejaVuSans-43" d="M 4122 4306 
L 4122 3641 
Q 3803 3938 3442 4084 
Q 3081 4231 2675 4231 
Q 1875 4231 1450 3742 
Q 1025 3253 1025 2328 
Q 1025 1406 1450 917 
Q 1875 428 2675 428 
Q 3081 428 3442 575 
Q 3803 722 4122 1019 
L 4122 359 
Q 3791 134 3420 21 
Q 3050 -91 2638 -91 
Q 1578 -91 968 557 
Q 359 1206 359 2328 
Q 359 3453 968 4101 
Q 1578 4750 2638 4750 
Q 3056 4750 3426 4639 
Q 3797 4528 4122 4306 
z
" transform="scale(0.015625)"/>
        <path id="DejaVuSans-45" d="M 628 4666 
L 3578 4666 
L 3578 4134 
L 1259 4134 
L 1259 2753 
L 3481 2753 
L 3481 2222 
L 1259 2222 
L 1259 531 
L 3634 531 
L 3634 0 
L 628 0 
L 628 4666 
z
" transform="scale(0.015625)"/>
        <path id="DejaVuSans-55" d="M 556 4666 
L 1191 4666 
L 1191 1831 
Q 1191 1081 1462 751 
Q 1734 422 2344 422 
Q 2950 422 3222 751 
Q 3494 1081 3494 1831 
L 3494 4666 
L 4128 4666 
L 4128 1753 
Q 4128 841 3676 375 
Q 3225 -91 2344 -91 
Q 1459 -91 1007 375 
Q 556 841 556 1753 
L 556 4666 
z
" transform="scale(0.015625)"/>
        <path id="DejaVuSans-54" d="M -19 4666 
L 3928 4666 
L 3928 4134 
L 2272 4134 
L 2272 0 
L 1638 0 
L 1638 4134 
L -19 4134 
L -19 4666 
z
" transform="scale(0.015625)"/>
        <path id="DejaVuSans-38" d="M 2034 2216 
Q 1584 2216 1326 1975 
Q 1069 1734 1069 1313 
Q 1069 891 1326 650 
Q 1584 409 2034 409 
Q 2484 409 2743 651 
Q 3003 894 3003 1313 
Q 3003 1734 2745 1975 
Q 2488 2216 2034 2216 
z
M 1403 2484 
Q 997 2584 770 2862 
Q 544 3141 544 3541 
Q 544 4100 942 4425 
Q 1341 4750 2034 4750 
Q 2731 4750 3128 4425 
Q 3525 4100 3525 3541 
Q 3525 3141 3298 2862 
Q 3072 2584 2669 2484 
Q 3125 2378 3379 2068 
Q 3634 1759 3634 1313 
Q 3634 634 3220 271 
Q 2806 -91 2034 -91 
Q 1263 -91 848 271 
Q 434 634 434 1313 
Q 434 1759 690 2068 
Q 947 2378 1403 2484 
z
M 1172 3481 
Q 1172 3119 1398 2916 
Q 1625 2713 2034 2713 
Q 2441 2713 2670 2916 
Q 2900 3119 2900 3481 
Q 2900 3844 2670 4047 
Q 2441 4250 2034 4250 
Q 1625 4250 1398 4047 
Q 1172 3844 1172 3481 
z
" transform="scale(0.015625)"/>
        <path id="DejaVuSans-73" d="M 2834 3397 
L 2834 2853 
Q 2591 2978 2328 3040 
Q 2066 3103 1784 3103 
Q 1356 3103 1142 2972 
Q 928 2841 928 2578 
Q 928 2378 1081 2264 
Q 1234 2150 1697 2047 
L 1894 2003 
Q 2506 1872 2764 1633 
Q 3022 1394 3022 966 
Q 3022 478 2636 193 
Q 2250 -91 1575 -91 
Q 1294 -91 989 -36 
Q 684 19 347 128 
L 347 722 
Q 666 556 975 473 
Q 1284 391 1588 391 
Q 1994 391 2212 530 
Q 2431 669 2431 922 
Q 2431 1156 2273 1281 
Q 2116 1406 1581 1522 
L 1381 1569 
Q 847 1681 609 1914 
Q 372 2147 372 2553 
Q 372 3047 722 3315 
Q 1072 3584 1716 3584 
Q 2034 3584 2315 3537 
Q 2597 3491 2834 3397 
z
" transform="scale(0.015625)"/>
        <path id="DejaVuSans-76" d="M 191 3500 
L 800 3500 
L 1894 563 
L 2988 3500 
L 3597 3500 
L 2284 0 
L 1503 0 
L 191 3500 
z
" transform="scale(0.015625)"/>
        <path id="DejaVuSans-64" d="M 2906 2969 
L 2906 4863 
L 3481 4863 
L 3481 0 
L 2906 0 
L 2906 525 
Q 2725 213 2448 61 
Q 2172 -91 1784 -91 
Q 1150 -91 751 415 
Q 353 922 353 1747 
Q 353 2572 751 3078 
Q 1150 3584 1784 3584 
Q 2172 3584 2448 3432 
Q 2725 3281 2906 2969 
z
M 947 1747 
Q 947 1113 1208 752 
Q 1469 391 1925 391 
Q 2381 391 2643 752 
Q 2906 1113 2906 1747 
Q 2906 2381 2643 2742 
Q 2381 3103 1925 3103 
Q 1469 3103 1208 2742 
Q 947 2381 947 1747 
z
" transform="scale(0.015625)"/>
       </defs>
       <use xlink:href="#DejaVuSans-43"/>
       <use xlink:href="#DejaVuSans-4e" x="69.824219"/>
       <use xlink:href="#DejaVuSans-56" x="144.628906"/>
       <use xlink:href="#DejaVuSans-20" x="213.037109"/>
       <use xlink:href="#DejaVuSans-4e" x="244.824219"/>
       <use xlink:href="#DejaVuSans-45" x="319.628906"/>
       <use xlink:href="#DejaVuSans-55" x="382.8125"/>
       <use xlink:href="#DejaVuSans-54" x="456.005859"/>
       <use xlink:href="#DejaVuSans-20" x="517.089844"/>
       <use xlink:href="#DejaVuSans-5b" x="548.876953"/>
       <use xlink:href="#DejaVuSans-32" x="587.890625"/>
       <use xlink:href="#DejaVuSans-30" x="651.513672"/>
       <use xlink:href="#DejaVuSans-30" x="715.136719"/>
       <use xlink:href="#DejaVuSans-34" x="778.759766"/>
       <use xlink:href="#DejaVuSans-34" x="842.382812"/>
       <use xlink:href="#DejaVuSans-31" x="906.005859"/>
       <use xlink:href="#DejaVuSans-35" x="969.628906"/>
       <use xlink:href="#DejaVuSans-2d" x="1033.251953"/>
       <use xlink:href="#DejaVuSans-31" x="1069.335938"/>
       <use xlink:href="#DejaVuSans-37" x="1132.958984"/>
       <use xlink:href="#DejaVuSans-32" x="1196.582031"/>
       <use xlink:href="#DejaVuSans-38" x="1260.205078"/>
       <use xlink:href="#DejaVuSans-34" x="1323.828125"/>
       <use xlink:href="#DejaVuSans-34" x="1387.451172"/>
       <use xlink:href="#DejaVuSans-36" x="1451.074219"/>
       <use xlink:href="#DejaVuSans-31" x="1514.697266"/>
       <use xlink:href="#DejaVuSans-5d" x="1578.320312"/>
       <use xlink:href="#DejaVuSans-20" x="1617.333984"/>
       <use xlink:href="#DejaVuSans-28" x="1649.121094"/>
       <use xlink:href="#DejaVuSans-73" x="1688.134766"/>
       <use xlink:href="#DejaVuSans-75" x="1740.234375"/>
       <use xlink:href="#DejaVuSans-70" x="1803.613281"/>
       <use xlink:href="#DejaVuSans-65" x="1867.089844"/>
       <use xlink:href="#DejaVuSans-72" x="1928.613281"/>
       <use xlink:href="#DejaVuSans-76" x="1969.726562"/>
       <use xlink:href="#DejaVuSans-69" x="2028.90625"/>
       <use xlink:href="#DejaVuSans-73" x="2056.689453"/>
       <use xlink:href="#DejaVuSans-65" x="2108.789062"/>
       <use xlink:href="#DejaVuSans-64" x="2170.3125"/>
       <use xlink:href="#DejaVuSans-20" x="2233.789062"/>
       <use xlink:href="#DejaVuSans-66" x="2265.576172"/>
       <use xlink:href="#DejaVuSans-72" x="2300.78125"/>
       <use xlink:href="#DejaVuSans-61" x="2341.894531"/>
       <use xlink:href="#DejaVuSans-63" x="2403.173828"/>
       <use xlink:href="#DejaVuSans-29" x="2458.154297"/>
      </g>
     </g>
    </g>
    <g id="ytick_3">
     <g id="text_12">
      <!-- CNV NEUT [3357627-15067770] (clustering frac) -->
      <g transform="translate(-433.675 186.198281)scale(0.22 -0.22)">
       <defs>
        <path id="DejaVuSans-67" d="M 2906 1791 
Q 2906 2416 2648 2759 
Q 2391 3103 1925 3103 
Q 1463 3103 1205 2759 
Q 947 2416 947 1791 
Q 947 1169 1205 825 
Q 1463 481 1925 481 
Q 2391 481 2648 825 
Q 2906 1169 2906 1791 
z
M 3481 434 
Q 3481 -459 3084 -895 
Q 2688 -1331 1869 -1331 
Q 1566 -1331 1297 -1286 
Q 1028 -1241 775 -1147 
L 775 -588 
Q 1028 -725 1275 -790 
Q 1522 -856 1778 -856 
Q 2344 -856 2625 -561 
Q 2906 -266 2906 331 
L 2906 616 
Q 2728 306 2450 153 
Q 2172 0 1784 0 
Q 1141 0 747 490 
Q 353 981 353 1791 
Q 353 2603 747 3093 
Q 1141 3584 1784 3584 
Q 2172 3584 2450 3431 
Q 2728 3278 2906 2969 
L 2906 3500 
L 3481 3500 
L 3481 434 
z
" transform="scale(0.015625)"/>
       </defs>
       <use xlink:href="#DejaVuSans-43"/>
       <use xlink:href="#DejaVuSans-4e" x="69.824219"/>
       <use xlink:href="#DejaVuSans-56" x="144.628906"/>
       <use xlink:href="#DejaVuSans-20" x="213.037109"/>
       <use xlink:href="#DejaVuSans-4e" x="244.824219"/>
       <use xlink:href="#DejaVuSans-45" x="319.628906"/>
       <use xlink:href="#DejaVuSans-55" x="382.8125"/>
       <use xlink:href="#DejaVuSans-54" x="456.005859"/>
       <use xlink:href="#DejaVuSans-20" x="517.089844"/>
       <use xlink:href="#DejaVuSans-5b" x="548.876953"/>
       <use xlink:href="#DejaVuSans-33" x="587.890625"/>
       <use xlink:href="#DejaVuSans-33" x="651.513672"/>
       <use xlink:href="#DejaVuSans-35" x="715.136719"/>
       <use xlink:href="#DejaVuSans-37" x="778.759766"/>
       <use xlink:href="#DejaVuSans-36" x="842.382812"/>
       <use xlink:href="#DejaVuSans-32" x="906.005859"/>
       <use xlink:href="#DejaVuSans-37" x="969.628906"/>
       <use xlink:href="#DejaVuSans-2d" x="1033.251953"/>
       <use xlink:href="#DejaVuSans-31" x="1069.335938"/>
       <use xlink:href="#DejaVuSans-35" x="1132.958984"/>
       <use xlink:href="#DejaVuSans-30" x="1196.582031"/>
       <use xlink:href="#DejaVuSans-36" x="1260.205078"/>
       <use xlink:href="#DejaVuSans-37" x="1323.828125"/>
       <use xlink:href="#DejaVuSans-37" x="1387.451172"/>
       <use xlink:href="#DejaVuSans-37" x="1451.074219"/>
       <use xlink:href="#DejaVuSans-30" x="1514.697266"/>
       <use xlink:href="#DejaVuSans-5d" x="1578.320312"/>
       <use xlink:href="#DejaVuSans-20" x="1617.333984"/>
       <use xlink:href="#DejaVuSans-28" x="1649.121094"/>
       <use xlink:href="#DejaVuSans-63" x="1688.134766"/>
       <use xlink:href="#DejaVuSans-6c" x="1743.115234"/>
       <use xlink:href="#DejaVuSans-75" x="1770.898438"/>
       <use xlink:href="#DejaVuSans-73" x="1834.277344"/>
       <use xlink:href="#DejaVuSans-74" x="1886.376953"/>
       <use xlink:href="#DejaVuSans-65" x="1925.585938"/>
       <use xlink:href="#DejaVuSans-72" x="1987.109375"/>
       <use xlink:href="#DejaVuSans-69" x="2028.222656"/>
       <use xlink:href="#DejaVuSans-6e" x="2056.005859"/>
       <use xlink:href="#DejaVuSans-67" x="2119.384766"/>
       <use xlink:href="#DejaVuSans-20" x="2182.861328"/>
       <use xlink:href="#DejaVuSans-66" x="2214.648438"/>
       <use xlink:href="#DejaVuSans-72" x="2249.853516"/>
       <use xlink:href="#DejaVuSans-61" x="2290.966797"/>
       <use xlink:href="#DejaVuSans-63" x="2352.246094"/>
       <use xlink:href="#DejaVuSans-29" x="2407.226562"/>
      </g>
     </g>
    </g>
    <g id="ytick_4">
     <g id="text_13">
      <!-- CNV NEUT [7790225-16970208] (quantile frac) -->
      <g transform="translate(-414.555625 229.686281)scale(0.22 -0.22)">
       <use xlink:href="#DejaVuSans-43"/>
       <use xlink:href="#DejaVuSans-4e" x="69.824219"/>
       <use xlink:href="#DejaVuSans-56" x="144.628906"/>
       <use xlink:href="#DejaVuSans-20" x="213.037109"/>
       <use xlink:href="#DejaVuSans-4e" x="244.824219"/>
       <use xlink:href="#DejaVuSans-45" x="319.628906"/>
       <use xlink:href="#DejaVuSans-55" x="382.8125"/>
       <use xlink:href="#DejaVuSans-54" x="456.005859"/>
       <use xlink:href="#DejaVuSans-20" x="517.089844"/>
       <use xlink:href="#DejaVuSans-5b" x="548.876953"/>
       <use xlink:href="#DejaVuSans-37" x="587.890625"/>
       <use xlink:href="#DejaVuSans-37" x="651.513672"/>
       <use xlink:href="#DejaVuSans-39" x="715.136719"/>
       <use xlink:href="#DejaVuSans-30" x="778.759766"/>
       <use xlink:href="#DejaVuSans-32" x="842.382812"/>
       <use xlink:href="#DejaVuSans-32" x="906.005859"/>
       <use xlink:href="#DejaVuSans-35" x="969.628906"/>
       <use xlink:href="#DejaVuSans-2d" x="1033.251953"/>
       <use xlink:href="#DejaVuSans-31" x="1069.335938"/>
       <use xlink:href="#DejaVuSans-36" x="1132.958984"/>
       <use xlink:href="#DejaVuSans-39" x="1196.582031"/>
       <use xlink:href="#DejaVuSans-37" x="1260.205078"/>
       <use xlink:href="#DejaVuSans-30" x="1323.828125"/>
       <use xlink:href="#DejaVuSans-32" x="1387.451172"/>
       <use xlink:href="#DejaVuSans-30" x="1451.074219"/>
       <use xlink:href="#DejaVuSans-38" x="1514.697266"/>
       <use xlink:href="#DejaVuSans-5d" x="1578.320312"/>
       <use xlink:href="#DejaVuSans-20" x="1617.333984"/>
       <use xlink:href="#DejaVuSans-28" x="1649.121094"/>
       <use xlink:href="#DejaVuSans-71" x="1688.134766"/>
       <use xlink:href="#DejaVuSans-75" x="1751.611328"/>
       <use xlink:href="#DejaVuSans-61" x="1814.990234"/>
       <use xlink:href="#DejaVuSans-6e" x="1876.269531"/>
       <use xlink:href="#DejaVuSans-74" x="1939.648438"/>
       <use xlink:href="#DejaVuSans-69" x="1978.857422"/>
       <use xlink:href="#DejaVuSans-6c" x="2006.640625"/>
       <use xlink:href="#DejaVuSans-65" x="2034.423828"/>
       <use xlink:href="#DejaVuSans-20" x="2095.947266"/>
       <use xlink:href="#DejaVuSans-66" x="2127.734375"/>
       <use xlink:href="#DejaVuSans-72" x="2162.939453"/>
       <use xlink:href="#DejaVuSans-61" x="2204.052734"/>
       <use xlink:href="#DejaVuSans-63" x="2265.332031"/>
       <use xlink:href="#DejaVuSans-29" x="2320.3125"/>
      </g>
     </g>
    </g>
    <g id="ytick_5">
     <g id="text_14">
      <!-- SV DUP [1546-3633] (quantile) -->
      <g transform="translate(-235.767812 273.174281)scale(0.22 -0.22)">
       <defs>
        <path id="DejaVuSans-44" d="M 1259 4147 
L 1259 519 
L 2022 519 
Q 2988 519 3436 956 
Q 3884 1394 3884 2338 
Q 3884 3275 3436 3711 
Q 2988 4147 2022 4147 
L 1259 4147 
z
M 628 4666 
L 1925 4666 
Q 3281 4666 3915 4102 
Q 4550 3538 4550 2338 
Q 4550 1131 3912 565 
Q 3275 0 1925 0 
L 628 0 
L 628 4666 
z
" transform="scale(0.015625)"/>
        <path id="DejaVuSans-50" d="M 1259 4147 
L 1259 2394 
L 2053 2394 
Q 2494 2394 2734 2622 
Q 2975 2850 2975 3272 
Q 2975 3691 2734 3919 
Q 2494 4147 2053 4147 
L 1259 4147 
z
M 628 4666 
L 2053 4666 
Q 2838 4666 3239 4311 
Q 3641 3956 3641 3272 
Q 3641 2581 3239 2228 
Q 2838 1875 2053 1875 
L 1259 1875 
L 1259 0 
L 628 0 
L 628 4666 
z
" transform="scale(0.015625)"/>
       </defs>
       <use xlink:href="#DejaVuSans-53"/>
       <use xlink:href="#DejaVuSans-56" x="63.476562"/>
       <use xlink:href="#DejaVuSans-20" x="131.884766"/>
       <use xlink:href="#DejaVuSans-44" x="163.671875"/>
       <use xlink:href="#DejaVuSans-55" x="240.673828"/>
       <use xlink:href="#DejaVuSans-50" x="313.867188"/>
       <use xlink:href="#DejaVuSans-20" x="374.169922"/>
       <use xlink:href="#DejaVuSans-5b" x="405.957031"/>
       <use xlink:href="#DejaVuSans-31" x="444.970703"/>
       <use xlink:href="#DejaVuSans-35" x="508.59375"/>
       <use xlink:href="#DejaVuSans-34" x="572.216797"/>
       <use xlink:href="#DejaVuSans-36" x="635.839844"/>
       <use xlink:href="#DejaVuSans-2d" x="699.462891"/>
       <use xlink:href="#DejaVuSans-33" x="735.546875"/>
       <use xlink:href="#DejaVuSans-36" x="799.169922"/>
       <use xlink:href="#DejaVuSans-33" x="862.792969"/>
       <use xlink:href="#DejaVuSans-33" x="926.416016"/>
       <use xlink:href="#DejaVuSans-5d" x="990.039062"/>
       <use xlink:href="#DejaVuSans-20" x="1029.052734"/>
       <use xlink:href="#DejaVuSans-28" x="1060.839844"/>
       <use xlink:href="#DejaVuSans-71" x="1099.853516"/>
       <use xlink:href="#DejaVuSans-75" x="1163.330078"/>
       <use xlink:href="#DejaVuSans-61" x="1226.708984"/>
       <use xlink:href="#DejaVuSans-6e" x="1287.988281"/>
       <use xlink:href="#DejaVuSans-74" x="1351.367188"/>
       <use xlink:href="#DejaVuSans-69" x="1390.576172"/>
       <use xlink:href="#DejaVuSans-6c" x="1418.359375"/>
       <use xlink:href="#DejaVuSans-65" x="1446.142578"/>
       <use xlink:href="#DejaVuSans-29" x="1507.666016"/>
      </g>
     </g>
    </g>
    <g id="ytick_6">
     <g id="text_15">
      <!-- SV DUP [3633-5545] (quantile) -->
      <g transform="translate(-235.767812 316.662281)scale(0.22 -0.22)">
       <use xlink:href="#DejaVuSans-53"/>
       <use xlink:href="#DejaVuSans-56" x="63.476562"/>
       <use xlink:href="#DejaVuSans-20" x="131.884766"/>
       <use xlink:href="#DejaVuSans-44" x="163.671875"/>
       <use xlink:href="#DejaVuSans-55" x="240.673828"/>
       <use xlink:href="#DejaVuSans-50" x="313.867188"/>
       <use xlink:href="#DejaVuSans-20" x="374.169922"/>
       <use xlink:href="#DejaVuSans-5b" x="405.957031"/>
       <use xlink:href="#DejaVuSans-33" x="444.970703"/>
       <use xlink:href="#DejaVuSans-36" x="508.59375"/>
       <use xlink:href="#DejaVuSans-33" x="572.216797"/>
       <use xlink:href="#DejaVuSans-33" x="635.839844"/>
       <use xlink:href="#DejaVuSans-2d" x="699.462891"/>
       <use xlink:href="#DejaVuSans-35" x="735.546875"/>
       <use xlink:href="#DejaVuSans-35" x="799.169922"/>
       <use xlink:href="#DejaVuSans-34" x="862.792969"/>
       <use xlink:href="#DejaVuSans-35" x="926.416016"/>
       <use xlink:href="#DejaVuSans-5d" x="990.039062"/>
       <use xlink:href="#DejaVuSans-20" x="1029.052734"/>
       <use xlink:href="#DejaVuSans-28" x="1060.839844"/>
       <use xlink:href="#DejaVuSans-71" x="1099.853516"/>
       <use xlink:href="#DejaVuSans-75" x="1163.330078"/>
       <use xlink:href="#DejaVuSans-61" x="1226.708984"/>
       <use xlink:href="#DejaVuSans-6e" x="1287.988281"/>
       <use xlink:href="#DejaVuSans-74" x="1351.367188"/>
       <use xlink:href="#DejaVuSans-69" x="1390.576172"/>
       <use xlink:href="#DejaVuSans-6c" x="1418.359375"/>
       <use xlink:href="#DejaVuSans-65" x="1446.142578"/>
       <use xlink:href="#DejaVuSans-29" x="1507.666016"/>
      </g>
     </g>
    </g>
    <g id="ytick_7">
     <g id="text_16">
      <!-- SV DUP [3633-5545] (quantile frac) -->
      <g transform="translate(-285.126875 360.150281)scale(0.22 -0.22)">
       <use xlink:href="#DejaVuSans-53"/>
       <use xlink:href="#DejaVuSans-56" x="63.476562"/>
       <use xlink:href="#DejaVuSans-20" x="131.884766"/>
       <use xlink:href="#DejaVuSans-44" x="163.671875"/>
       <use xlink:href="#DejaVuSans-55" x="240.673828"/>
       <use xlink:href="#DejaVuSans-50" x="313.867188"/>
       <use xlink:href="#DejaVuSans-20" x="374.169922"/>
       <use xlink:href="#DejaVuSans-5b" x="405.957031"/>
       <use xlink:href="#DejaVuSans-33" x="444.970703"/>
       <use xlink:href="#DejaVuSans-36" x="508.59375"/>
       <use xlink:href="#DejaVuSans-33" x="572.216797"/>
       <use xlink:href="#DejaVuSans-33" x="635.839844"/>
       <use xlink:href="#DejaVuSans-2d" x="699.462891"/>
       <use xlink:href="#DejaVuSans-35" x="735.546875"/>
       <use xlink:href="#DejaVuSans-35" x="799.169922"/>
       <use xlink:href="#DejaVuSans-34" x="862.792969"/>
       <use xlink:href="#DejaVuSans-35" x="926.416016"/>
       <use xlink:href="#DejaVuSans-5d" x="990.039062"/>
       <use xlink:href="#DejaVuSans-20" x="1029.052734"/>
       <use xlink:href="#DejaVuSans-28" x="1060.839844"/>
       <use xlink:href="#DejaVuSans-71" x="1099.853516"/>
       <use xlink:href="#DejaVuSans-75" x="1163.330078"/>
       <use xlink:href="#DejaVuSans-61" x="1226.708984"/>
       <use xlink:href="#DejaVuSans-6e" x="1287.988281"/>
       <use xlink:href="#DejaVuSans-74" x="1351.367188"/>
       <use xlink:href="#DejaVuSans-69" x="1390.576172"/>
       <use xlink:href="#DejaVuSans-6c" x="1418.359375"/>
       <use xlink:href="#DejaVuSans-65" x="1446.142578"/>
       <use xlink:href="#DejaVuSans-20" x="1507.666016"/>
       <use xlink:href="#DejaVuSans-66" x="1539.453125"/>
       <use xlink:href="#DejaVuSans-72" x="1574.658203"/>
       <use xlink:href="#DejaVuSans-61" x="1615.771484"/>
       <use xlink:href="#DejaVuSans-63" x="1677.050781"/>
       <use xlink:href="#DejaVuSans-29" x="1732.03125"/>
      </g>
     </g>
    </g>
    <g id="ytick_8">
     <g id="text_17">
      <!-- CNV NEUT [3454397-7790225] (quantile frac) -->
      <g transform="translate(-400.558125 403.638281)scale(0.22 -0.22)">
       <use xlink:href="#DejaVuSans-43"/>
       <use xlink:href="#DejaVuSans-4e" x="69.824219"/>
       <use xlink:href="#DejaVuSans-56" x="144.628906"/>
       <use xlink:href="#DejaVuSans-20" x="213.037109"/>
       <use xlink:href="#DejaVuSans-4e" x="244.824219"/>
       <use xlink:href="#DejaVuSans-45" x="319.628906"/>
       <use xlink:href="#DejaVuSans-55" x="382.8125"/>
       <use xlink:href="#DejaVuSans-54" x="456.005859"/>
       <use xlink:href="#DejaVuSans-20" x="517.089844"/>
       <use xlink:href="#DejaVuSans-5b" x="548.876953"/>
       <use xlink:href="#DejaVuSans-33" x="587.890625"/>
       <use xlink:href="#DejaVuSans-34" x="651.513672"/>
       <use xlink:href="#DejaVuSans-35" x="715.136719"/>
       <use xlink:href="#DejaVuSans-34" x="778.759766"/>
       <use xlink:href="#DejaVuSans-33" x="842.382812"/>
       <use xlink:href="#DejaVuSans-39" x="906.005859"/>
       <use xlink:href="#DejaVuSans-37" x="969.628906"/>
       <use xlink:href="#DejaVuSans-2d" x="1033.251953"/>
       <use xlink:href="#DejaVuSans-37" x="1069.335938"/>
       <use xlink:href="#DejaVuSans-37" x="1132.958984"/>
       <use xlink:href="#DejaVuSans-39" x="1196.582031"/>
       <use xlink:href="#DejaVuSans-30" x="1260.205078"/>
       <use xlink:href="#DejaVuSans-32" x="1323.828125"/>
       <use xlink:href="#DejaVuSans-32" x="1387.451172"/>
       <use xlink:href="#DejaVuSans-35" x="1451.074219"/>
       <use xlink:href="#DejaVuSans-5d" x="1514.697266"/>
       <use xlink:href="#DejaVuSans-20" x="1553.710938"/>
       <use xlink:href="#DejaVuSans-28" x="1585.498047"/>
       <use xlink:href="#DejaVuSans-71" x="1624.511719"/>
       <use xlink:href="#DejaVuSans-75" x="1687.988281"/>
       <use xlink:href="#DejaVuSans-61" x="1751.367188"/>
       <use xlink:href="#DejaVuSans-6e" x="1812.646484"/>
       <use xlink:href="#DejaVuSans-74" x="1876.025391"/>
       <use xlink:href="#DejaVuSans-69" x="1915.234375"/>
       <use xlink:href="#DejaVuSans-6c" x="1943.017578"/>
       <use xlink:href="#DejaVuSans-65" x="1970.800781"/>
       <use xlink:href="#DejaVuSans-20" x="2032.324219"/>
       <use xlink:href="#DejaVuSans-66" x="2064.111328"/>
       <use xlink:href="#DejaVuSans-72" x="2099.316406"/>
       <use xlink:href="#DejaVuSans-61" x="2140.429688"/>
       <use xlink:href="#DejaVuSans-63" x="2201.708984"/>
       <use xlink:href="#DejaVuSans-29" x="2256.689453"/>
      </g>
     </g>
    </g>
    <g id="ytick_9">
     <g id="text_18">
      <!-- SV DUP [1546-3633] (quantile frac) -->
      <g transform="translate(-285.126875 447.126281)scale(0.22 -0.22)">
       <use xlink:href="#DejaVuSans-53"/>
       <use xlink:href="#DejaVuSans-56" x="63.476562"/>
       <use xlink:href="#DejaVuSans-20" x="131.884766"/>
       <use xlink:href="#DejaVuSans-44" x="163.671875"/>
       <use xlink:href="#DejaVuSans-55" x="240.673828"/>
       <use xlink:href="#DejaVuSans-50" x="313.867188"/>
       <use xlink:href="#DejaVuSans-20" x="374.169922"/>
       <use xlink:href="#DejaVuSans-5b" x="405.957031"/>
       <use xlink:href="#DejaVuSans-31" x="444.970703"/>
       <use xlink:href="#DejaVuSans-35" x="508.59375"/>
       <use xlink:href="#DejaVuSans-34" x="572.216797"/>
       <use xlink:href="#DejaVuSans-36" x="635.839844"/>
       <use xlink:href="#DejaVuSans-2d" x="699.462891"/>
       <use xlink:href="#DejaVuSans-33" x="735.546875"/>
       <use xlink:href="#DejaVuSans-36" x="799.169922"/>
       <use xlink:href="#DejaVuSans-33" x="862.792969"/>
       <use xlink:href="#DejaVuSans-33" x="926.416016"/>
       <use xlink:href="#DejaVuSans-5d" x="990.039062"/>
       <use xlink:href="#DejaVuSans-20" x="1029.052734"/>
       <use xlink:href="#DejaVuSans-28" x="1060.839844"/>
       <use xlink:href="#DejaVuSans-71" x="1099.853516"/>
       <use xlink:href="#DejaVuSans-75" x="1163.330078"/>
       <use xlink:href="#DejaVuSans-61" x="1226.708984"/>
       <use xlink:href="#DejaVuSans-6e" x="1287.988281"/>
       <use xlink:href="#DejaVuSans-74" x="1351.367188"/>
       <use xlink:href="#DejaVuSans-69" x="1390.576172"/>
       <use xlink:href="#DejaVuSans-6c" x="1418.359375"/>
       <use xlink:href="#DejaVuSans-65" x="1446.142578"/>
       <use xlink:href="#DejaVuSans-20" x="1507.666016"/>
       <use xlink:href="#DejaVuSans-66" x="1539.453125"/>
       <use xlink:href="#DejaVuSans-72" x="1574.658203"/>
       <use xlink:href="#DejaVuSans-61" x="1615.771484"/>
       <use xlink:href="#DejaVuSans-63" x="1677.050781"/>
       <use xlink:href="#DejaVuSans-29" x="1732.03125"/>
      </g>
     </g>
    </g>
    <g id="ytick_10">
     <g id="text_19">
      <!-- PGR -->
      <g transform="translate(58.901562 490.614281)scale(0.22 -0.22)">
       <defs>
        <path id="DejaVuSans-47" d="M 3809 666 
L 3809 1919 
L 2778 1919 
L 2778 2438 
L 4434 2438 
L 4434 434 
Q 4069 175 3628 42 
Q 3188 -91 2688 -91 
Q 1594 -91 976 548 
Q 359 1188 359 2328 
Q 359 3472 976 4111 
Q 1594 4750 2688 4750 
Q 3144 4750 3555 4637 
Q 3966 4525 4313 4306 
L 4313 3634 
Q 3963 3931 3569 4081 
Q 3175 4231 2741 4231 
Q 1884 4231 1454 3753 
Q 1025 3275 1025 2328 
Q 1025 1384 1454 906 
Q 1884 428 2741 428 
Q 3075 428 3337 486 
Q 3600 544 3809 666 
z
" transform="scale(0.015625)"/>
        <path id="DejaVuSans-52" d="M 2841 2188 
Q 3044 2119 3236 1894 
Q 3428 1669 3622 1275 
L 4263 0 
L 3584 0 
L 2988 1197 
Q 2756 1666 2539 1819 
Q 2322 1972 1947 1972 
L 1259 1972 
L 1259 0 
L 628 0 
L 628 4666 
L 2053 4666 
Q 2853 4666 3247 4331 
Q 3641 3997 3641 3322 
Q 3641 2881 3436 2590 
Q 3231 2300 2841 2188 
z
M 1259 4147 
L 1259 2491 
L 2053 2491 
Q 2509 2491 2742 2702 
Q 2975 2913 2975 3322 
Q 2975 3731 2742 3939 
Q 2509 4147 2053 4147 
L 1259 4147 
z
" transform="scale(0.015625)"/>
       </defs>
       <use xlink:href="#DejaVuSans-50"/>
       <use xlink:href="#DejaVuSans-47" x="60.302734"/>
       <use xlink:href="#DejaVuSans-52" x="137.792969"/>
      </g>
     </g>
    </g>
   </g>
   <g id="line2d_9">
    <path clip-path="url(#p9ffdae87ff)" style="fill: none; stroke: #424242; stroke-width: 2.16; stroke-linecap: square"/>
   </g>
   <g id="line2d_10">
    <path clip-path="url(#p9ffdae87ff)" style="fill: none; stroke: #424242; stroke-width: 2.16; stroke-linecap: square"/>
   </g>
   <g id="line2d_11">
    <path clip-path="url(#p9ffdae87ff)" style="fill: none; stroke: #424242; stroke-width: 2.16; stroke-linecap: square"/>
   </g>
   <g id="line2d_12">
    <path clip-path="url(#p9ffdae87ff)" style="fill: none; stroke: #424242; stroke-width: 2.16; stroke-linecap: square"/>
   </g>
   <g id="line2d_13">
    <path clip-path="url(#p9ffdae87ff)" style="fill: none; stroke: #424242; stroke-width: 2.16; stroke-linecap: square"/>
   </g>
   <g id="line2d_14">
    <path clip-path="url(#p9ffdae87ff)" style="fill: none; stroke: #424242; stroke-width: 2.16; stroke-linecap: square"/>
   </g>
   <g id="line2d_15">
    <path clip-path="url(#p9ffdae87ff)" style="fill: none; stroke: #424242; stroke-width: 2.16; stroke-linecap: square"/>
   </g>
   <g id="line2d_16">
    <path clip-path="url(#p9ffdae87ff)" style="fill: none; stroke: #424242; stroke-width: 2.16; stroke-linecap: square"/>
   </g>
   <g id="line2d_17">
    <path clip-path="url(#p9ffdae87ff)" style="fill: none; stroke: #424242; stroke-width: 2.16; stroke-linecap: square"/>
   </g>
   <g id="line2d_18">
    <path clip-path="url(#p9ffdae87ff)" style="fill: none; stroke: #424242; stroke-width: 2.16; stroke-linecap: square"/>
   </g>
   <g id="patch_13">
    <path d="M 108 504 
L 108 69.12 
" style="fill: none; stroke: #000000; stroke-linejoin: miter; stroke-linecap: square"/>
   </g>
   <g id="patch_14">
    <path d="M 777.6 504 
L 777.6 69.12 
" style="fill: none; stroke: #000000; stroke-linejoin: miter; stroke-linecap: square"/>
   </g>
   <g id="patch_15">
    <path d="M 108 504 
L 777.6 504 
" style="fill: none; stroke: #000000; stroke-linejoin: miter; stroke-linecap: square"/>
   </g>
   <g id="patch_16">
    <path d="M 108 69.12 
L 777.6 69.12 
" style="fill: none; stroke: #000000; stroke-linejoin: miter; stroke-linecap: square"/>
   </g>
   <g id="text_20">
    <!-- breast (ER+ HER2- vs TNBC) -->
    <g transform="translate(271.258125 63.12)scale(0.24 -0.24)">
     <defs>
      <path id="DejaVuSans-62" d="M 3116 1747 
Q 3116 2381 2855 2742 
Q 2594 3103 2138 3103 
Q 1681 3103 1420 2742 
Q 1159 2381 1159 1747 
Q 1159 1113 1420 752 
Q 1681 391 2138 391 
Q 2594 391 2855 752 
Q 3116 1113 3116 1747 
z
M 1159 2969 
Q 1341 3281 1617 3432 
Q 1894 3584 2278 3584 
Q 2916 3584 3314 3078 
Q 3713 2572 3713 1747 
Q 3713 922 3314 415 
Q 2916 -91 2278 -91 
Q 1894 -91 1617 61 
Q 1341 213 1159 525 
L 1159 0 
L 581 0 
L 581 4863 
L 1159 4863 
L 1159 2969 
z
" transform="scale(0.015625)"/>
      <path id="DejaVuSans-2b" d="M 2944 4013 
L 2944 2272 
L 4684 2272 
L 4684 1741 
L 2944 1741 
L 2944 0 
L 2419 0 
L 2419 1741 
L 678 1741 
L 678 2272 
L 2419 2272 
L 2419 4013 
L 2944 4013 
z
" transform="scale(0.015625)"/>
      <path id="DejaVuSans-48" d="M 628 4666 
L 1259 4666 
L 1259 2753 
L 3553 2753 
L 3553 4666 
L 4184 4666 
L 4184 0 
L 3553 0 
L 3553 2222 
L 1259 2222 
L 1259 0 
L 628 0 
L 628 4666 
z
" transform="scale(0.015625)"/>
      <path id="DejaVuSans-42" d="M 1259 2228 
L 1259 519 
L 2272 519 
Q 2781 519 3026 730 
Q 3272 941 3272 1375 
Q 3272 1813 3026 2020 
Q 2781 2228 2272 2228 
L 1259 2228 
z
M 1259 4147 
L 1259 2741 
L 2194 2741 
Q 2656 2741 2882 2914 
Q 3109 3088 3109 3444 
Q 3109 3797 2882 3972 
Q 2656 4147 2194 4147 
L 1259 4147 
z
M 628 4666 
L 2241 4666 
Q 2963 4666 3353 4366 
Q 3744 4066 3744 3513 
Q 3744 3084 3544 2831 
Q 3344 2578 2956 2516 
Q 3422 2416 3680 2098 
Q 3938 1781 3938 1306 
Q 3938 681 3513 340 
Q 3088 0 2303 0 
L 628 0 
L 628 4666 
z
" transform="scale(0.015625)"/>
     </defs>
     <use xlink:href="#DejaVuSans-62"/>
     <use xlink:href="#DejaVuSans-72" x="63.476562"/>
     <use xlink:href="#DejaVuSans-65" x="102.339844"/>
     <use xlink:href="#DejaVuSans-61" x="163.863281"/>
     <use xlink:href="#DejaVuSans-73" x="225.142578"/>
     <use xlink:href="#DejaVuSans-74" x="277.242188"/>
     <use xlink:href="#DejaVuSans-20" x="316.451172"/>
     <use xlink:href="#DejaVuSans-28" x="348.238281"/>
     <use xlink:href="#DejaVuSans-45" x="387.251953"/>
     <use xlink:href="#DejaVuSans-52" x="450.435547"/>
     <use xlink:href="#DejaVuSans-2b" x="519.917969"/>
     <use xlink:href="#DejaVuSans-20" x="603.707031"/>
     <use xlink:href="#DejaVuSans-48" x="635.494141"/>
     <use xlink:href="#DejaVuSans-45" x="710.689453"/>
     <use xlink:href="#DejaVuSans-52" x="773.873047"/>
     <use xlink:href="#DejaVuSans-32" x="843.355469"/>
     <use xlink:href="#DejaVuSans-2d" x="906.978516"/>
     <use xlink:href="#DejaVuSans-20" x="943.0625"/>
     <use xlink:href="#DejaVuSans-76" x="974.849609"/>
     <use xlink:href="#DejaVuSans-73" x="1034.029297"/>
     <use xlink:href="#DejaVuSans-20" x="1086.128906"/>
     <use xlink:href="#DejaVuSans-54" x="1117.916016"/>
     <use xlink:href="#DejaVuSans-4e" x="1179"/>
     <use xlink:href="#DejaVuSans-42" x="1253.804688"/>
     <use xlink:href="#DejaVuSans-43" x="1320.658203"/>
     <use xlink:href="#DejaVuSans-29" x="1390.482422"/>
    </g>
   </g>
  </g>
 </g>
 <defs>
  <clipPath id="p9ffdae87ff">
   <rect x="108" y="69.12" width="669.6" height="434.88"/>
  </clipPath>
 </defs>
</svg>
