<?xml version="1.0" encoding="utf-8" standalone="no"?>
<!DOCTYPE svg PUBLIC "-//W3C//DTD SVG 1.1//EN"
  "http://www.w3.org/Graphics/SVG/1.1/DTD/svg11.dtd">
<svg xmlns:xlink="http://www.w3.org/1999/xlink" width="432pt" height="288pt" viewBox="0 0 432 288" xmlns="http://www.w3.org/2000/svg" version="1.1">
 <metadata>
  <rdf:RDF xmlns:dc="http://purl.org/dc/elements/1.1/" xmlns:cc="http://creativecommons.org/ns#" xmlns:rdf="http://www.w3.org/1999/02/22-rdf-syntax-ns#">
   <cc:Work>
    <dc:type rdf:resource="http://purl.org/dc/dcmitype/StillImage"/>
    <dc:date>2022-01-07T21:53:21.801697</dc:date>
    <dc:format>image/svg+xml</dc:format>
    <dc:creator>
     <cc:Agent>
      <dc:title>Matplotlib v3.5.1, https://matplotlib.org/</dc:title>
     </cc:Agent>
    </dc:creator>
   </cc:Work>
  </rdf:RDF>
 </metadata>
 <defs>
  <style type="text/css">*{stroke-linejoin: round; stroke-linecap: butt}</style>
 </defs>
 <g id="figure_1">
  <g id="patch_1">
   <path d="M 0 288 
L 432 288 
L 432 0 
L 0 0 
L 0 288 
z
" style="fill: none"/>
  </g>
  <g id="axes_1">
   <g id="patch_2">
    <path d="M 54 252 
L 388.8 252 
L 388.8 34.56 
L 54 34.56 
z
" style="fill: #ffffff"/>
   </g>
   <g id="PolyCollection_1">
    <defs>
     <path id="m639b93ed09" d="M 69.218182 -48.200545 
L 69.218182 -47.664591 
L 70.747647 -47.635213 
L 72.277113 -47.549956 
L 73.806578 -47.416983 
L 75.336044 -47.248455 
L 76.865509 -47.058703 
L 78.394975 -46.862231 
L 79.92444 -46.671945 
L 81.453906 -46.497882 
L 82.983371 -46.346594 
L 84.512837 -46.221151 
L 86.042302 -46.121647 
L 87.571768 -46.045987 
L 89.101233 -45.990755 
L 90.630699 -45.952 
L 92.160164 -45.925839 
L 93.68963 -45.908837 
L 95.219095 -45.898192 
L 96.748561 -45.891768 
L 98.278026 -45.888031 
L 99.807492 -45.885934 
L 101.336958 -45.884798 
L 102.866423 -45.884204 
L 104.395889 -45.883905 
L 105.925354 -45.883759 
L 107.45482 -45.883691 
L 108.984285 -45.88366 
L 110.513751 -45.883646 
L 112.043216 -45.88364 
L 113.572682 -45.883638 
L 115.102147 -45.883637 
L 116.631613 -45.883637 
L 118.161078 -45.883636 
L 119.690544 -45.883636 
L 121.220009 -45.883636 
L 122.749475 -45.883636 
L 124.27894 -45.883636 
L 125.808406 -45.883636 
L 127.337871 -45.883637 
L 128.867337 -45.883637 
L 130.396802 -45.883638 
L 131.926268 -45.883641 
L 133.455733 -45.883649 
L 134.985199 -45.883666 
L 136.514664 -45.883706 
L 138.04413 -45.883791 
L 139.573595 -45.883972 
L 141.103061 -45.884341 
L 142.632526 -45.885068 
L 144.161992 -45.886455 
L 145.691457 -45.88901 
L 147.220923 -45.893564 
L 148.750388 -45.901413 
L 150.279854 -45.914497 
L 151.809319 -45.935591 
L 153.338785 -45.968495 
L 154.86825 -46.018165 
L 156.397716 -46.090754 
L 157.927181 -46.193501 
L 159.456647 -46.334452 
L 160.986112 -46.521994 
L 162.515578 -46.764247 
L 164.045043 -47.0684 
L 165.574509 -47.440076 
L 167.103974 -47.882845 
L 168.63344 -48.397941 
L 170.162905 -48.984207 
L 171.692371 -49.638201 
L 173.221836 -50.354374 
L 174.751302 -51.125229 
L 176.280767 -51.941406 
L 177.810233 -52.791743 
L 179.339698 -53.663467 
L 180.869164 -54.542706 
L 182.39863 -55.415559 
L 183.928095 -56.269854 
L 185.457561 -57.097593 
L 186.987026 -57.897859 
L 188.516492 -58.679714 
L 190.045957 -59.464403 
L 191.575423 -60.28613 
L 193.104888 -61.190813 
L 194.634354 -62.232696 
L 196.163819 -63.469249 
L 197.693285 -64.955311 
L 199.22275 -66.737527 
L 200.752216 -68.849947 
L 202.281681 -71.311401 
L 203.811147 -74.125102 
L 205.340612 -77.28087 
L 206.870078 -80.759949 
L 208.399543 -84.541744 
L 209.929009 -88.611148 
L 211.458474 -92.964782 
L 212.98794 -97.614586 
L 214.517405 -102.5877 
L 216.046871 -107.922423 
L 217.576336 -113.66087 
L 219.105802 -119.839752 
L 220.635267 -126.480971 
L 222.164733 -133.583645 
L 223.694198 -141.118597 
L 225.223664 -149.025651 
L 226.753129 -157.213599 
L 228.282595 -165.562743 
L 229.81206 -173.930689 
L 231.341526 -182.162851 
L 232.870991 -190.107663 
L 234.400457 -197.631438 
L 235.929922 -204.625424 
L 237.459388 -211.004015 
L 238.988853 -216.700106 
L 240.518319 -221.662385 
L 242.047784 -225.855234 
L 243.57725 -229.260036 
L 245.106715 -231.876752 
L 246.636181 -233.724904 
L 248.165646 -234.843202 
L 249.695112 -235.287126 
L 251.224577 -235.123911 
L 252.754043 -234.424784 
L 254.283508 -233.25494 
L 255.812974 -231.66264 
L 257.342439 -229.670398 
L 258.871905 -227.274042 
L 260.40137 -224.457063 
L 261.930836 -221.216701 
L 263.460302 -217.577744 
L 264.989767 -213.581981 
L 266.519233 -209.27385 
L 268.048698 -204.697573 
L 269.578164 -199.901377 
L 271.107629 -194.941417 
L 272.637095 -189.882351 
L 274.16656 -184.794561 
L 275.696026 -179.74942 
L 277.225491 -174.814315 
L 278.754957 -170.048669 
L 280.284422 -165.501122 
L 281.813888 -161.207206 
L 283.343353 -157.187178 
L 284.872819 -153.444718 
L 286.402284 -149.967707 
L 287.93175 -146.731705 
L 289.461215 -143.705731 
L 290.990681 -140.859304 
L 292.520146 -138.169466 
L 294.049612 -135.62639 
L 295.579077 -133.236059 
L 297.108543 -131.018828 
L 298.638008 -129.003855 
L 300.167474 -127.220998 
L 301.696939 -125.692702 
L 303.226405 -124.428103 
L 304.75587 -123.420618 
L 306.285336 -122.649298 
L 307.814801 -122.083321 
L 309.344267 -121.687911 
L 310.873732 -121.429065 
L 312.403198 -121.275003 
L 313.932663 -121.194476 
L 315.462129 -121.154003 
L 316.991594 -121.11612 
L 318.52106 -121.039708 
L 320.050525 -120.882572 
L 321.579991 -120.605777 
L 323.109456 -120.178758 
L 324.638922 -119.583971 
L 326.168387 -118.819906 
L 327.697853 -117.901549 
L 329.227318 -116.857785 
L 330.756784 -115.72576 
L 332.286249 -114.54288 
L 333.815715 -113.337882 
L 335.34518 -112.122927 
L 336.874646 -110.888706 
L 338.404111 -109.604 
L 339.933577 -108.220063 
L 341.463042 -106.679063 
L 342.992508 -104.924793 
L 344.521974 -102.913326 
L 346.051439 -100.62147 
L 347.580905 -98.051537 
L 349.11037 -95.23195 
L 350.639836 -92.213974 
L 352.169301 -89.065397 
L 353.698767 -85.86226 
L 355.228232 -82.679927 
L 356.757698 -79.58483 
L 358.287163 -76.628069 
L 359.816629 -73.84166 
L 361.346094 -71.237781 
L 362.87556 -68.810965 
L 364.405025 -66.542798 
L 365.934491 -64.408314 
L 367.463956 -62.382806 
L 368.993422 -60.447736 
L 370.522887 -58.594556 
L 372.052353 -56.825875 
L 373.581818 -55.153997 
L 373.581818 -56.215841 
L 373.581818 -56.215841 
L 372.052353 -58.079256 
L 370.522887 -60.051671 
L 368.993422 -62.116855 
L 367.463956 -64.267736 
L 365.934491 -66.508751 
L 364.405025 -68.855834 
L 362.87556 -71.333559 
L 361.346094 -73.969532 
L 359.816629 -76.786765 
L 358.287163 -79.795442 
L 356.757698 -82.985954 
L 355.228232 -86.325073 
L 353.698767 -89.756522 
L 352.169301 -93.206122 
L 350.639836 -96.590573 
L 349.11037 -99.828105 
L 347.580905 -102.848938 
L 346.051439 -105.603592 
L 344.521974 -108.067606 
L 342.992508 -110.242028 
L 341.463042 -112.149992 
L 339.933577 -113.830396 
L 338.404111 -115.33006 
L 336.874646 -116.695601 
L 335.34518 -117.966074 
L 333.815715 -119.167263 
L 332.286249 -120.308428 
L 330.756784 -121.382126 
L 329.227318 -122.36731 
L 327.697853 -123.235279 
L 326.168387 -123.957307 
L 324.638922 -124.51224 
L 323.109456 -124.89219 
L 321.579991 -125.105046 
L 320.050525 -125.17356 
L 318.52106 -125.131932 
L 316.991594 -125.021536 
L 315.462129 -124.887324 
L 313.932663 -124.775716 
L 312.403198 -124.733797 
L 310.873732 -124.808798 
L 309.344267 -125.046566 
L 307.814801 -125.488438 
L 306.285336 -126.167436 
L 304.75587 -127.105642 
L 303.226405 -128.313777 
L 301.696939 -129.792431 
L 300.167474 -131.534037 
L 298.638008 -133.525091 
L 297.108543 -135.748361 
L 295.579077 -138.184749 
L 294.049612 -140.814711 
L 292.520146 -143.619699 
L 290.990681 -146.584437 
L 289.461215 -149.700212 
L 287.93175 -152.968243 
L 286.402284 -156.40157 
L 284.872819 -160.024159 
L 283.343353 -163.866631 
L 281.813888 -167.95878 
L 280.284422 -172.319842 
L 278.754957 -176.948443 
L 277.225491 -181.815046 
L 275.696026 -186.859762 
L 274.16656 -191.996809 
L 272.637095 -197.12453 
L 271.107629 -202.138336 
L 269.578164 -206.943849 
L 268.048698 -211.468237 
L 266.519233 -215.668528 
L 264.989767 -219.536186 
L 263.460302 -223.09712 
L 261.930836 -226.404685 
L 260.40137 -229.52031 
L 258.871905 -232.480473 
L 257.342439 -235.268957 
L 255.812974 -237.818398 
L 254.283508 -240.031533 
L 252.754043 -241.799023 
L 251.224577 -243.00944 
L 249.695112 -243.556364 
L 248.165646 -243.34515 
L 246.636181 -242.29913 
L 245.106715 -240.364385 
L 243.57725 -237.512622 
L 242.047784 -233.74238 
L 240.518319 -229.079138 
L 238.988853 -223.57491 
L 237.459388 -217.307455 
L 235.929922 -210.378494 
L 234.400457 -202.909579 
L 232.870991 -195.034019 
L 231.341526 -186.88525 
L 229.81206 -178.586401 
L 228.282595 -170.247254 
L 226.753129 -161.967881 
L 225.223664 -153.841983 
L 223.694198 -145.955574 
L 222.164733 -138.382077 
L 220.635267 -131.176795 
L 219.105802 -124.373097 
L 217.576336 -117.981675 
L 216.046871 -111.993278 
L 214.517405 -106.384544 
L 212.98794 -101.125828 
L 211.458474 -96.189449 
L 209.929009 -91.556635 
L 208.399543 -87.221709 
L 206.870078 -83.192708 
L 205.340612 -79.488447 
L 203.811147 -76.132808 
L 202.281681 -73.147592 
L 200.752216 -70.545442 
L 199.22275 -68.324282 
L 197.693285 -66.464402 
L 196.163819 -64.928788 
L 194.634354 -63.666515 
L 193.104888 -62.618264 
L 191.575423 -61.722569 
L 190.045957 -60.921599 
L 188.516492 -60.165707 
L 186.987026 -59.416391 
L 185.457561 -58.647563 
L 183.928095 -57.845197 
L 182.39863 -57.00561 
L 180.869164 -56.132886 
L 179.339698 -55.23607 
L 177.810233 -54.326744 
L 176.280767 -53.417362 
L 174.751302 -52.520418 
L 173.221836 -51.648229 
L 171.692371 -50.812953 
L 170.162905 -50.026493 
L 168.63344 -49.300057 
L 167.103974 -48.643396 
L 165.574509 -48.063872 
L 164.045043 -47.565629 
L 162.515578 -47.14911 
L 160.986112 -46.811063 
L 159.456647 -46.545027 
L 157.927181 -46.342211 
L 156.397716 -46.192531 
L 154.86825 -46.085653 
L 153.338785 -46.011843 
L 151.809319 -45.962557 
L 150.279854 -45.930741 
L 148.750388 -45.910888 
L 147.220923 -45.898915 
L 145.691457 -45.891935 
L 144.161992 -45.888002 
L 142.632526 -45.885861 
L 141.103061 -45.884734 
L 139.573595 -45.884161 
L 138.04413 -45.883879 
L 136.514664 -45.883745 
L 134.985199 -45.883683 
L 133.455733 -45.883656 
L 131.926268 -45.883644 
L 130.396802 -45.88364 
L 128.867337 -45.883638 
L 127.337871 -45.883637 
L 125.808406 -45.883637 
L 124.27894 -45.883636 
L 122.749475 -45.883636 
L 121.220009 -45.883636 
L 119.690544 -45.883636 
L 118.161078 -45.883636 
L 116.631613 -45.883637 
L 115.102147 -45.883637 
L 113.572682 -45.883638 
L 112.043216 -45.883641 
L 110.513751 -45.883649 
L 108.984285 -45.883667 
L 107.45482 -45.883707 
L 105.925354 -45.883796 
L 104.395889 -45.883986 
L 102.866423 -45.884375 
L 101.336958 -45.885147 
L 99.807492 -45.886625 
L 98.278026 -45.889354 
L 96.748561 -45.894216 
L 95.219095 -45.902572 
L 93.68963 -45.916421 
L 92.160164 -45.93854 
L 90.630699 -45.972573 
L 89.101233 -46.02299 
L 87.571768 -46.094844 
L 86.042302 -46.193273 
L 84.512837 -46.322721 
L 82.983371 -46.485914 
L 81.453906 -46.682731 
L 79.92444 -46.909175 
L 78.394975 -47.156726 
L 76.865509 -47.412324 
L 75.336044 -47.659179 
L 73.806578 -47.878423 
L 72.277113 -48.051413 
L 70.747647 -48.162326 
L 69.218182 -48.200545 
z
" style="stroke: #1f77b4; stroke-opacity: 0.2"/>
    </defs>
    <g clip-path="url(#pcba000fcd7)">
     <use xlink:href="#m639b93ed09" x="0" y="288" style="fill: #1f77b4; fill-opacity: 0.2; stroke: #1f77b4; stroke-opacity: 0.2"/>
    </g>
   </g>
   <g id="PolyCollection_2">
    <defs>
     <path id="m2d2b1603a2" d="M 69.218182 -49.406473 
L 69.218182 -48.907505 
L 70.747647 -48.857625 
L 72.277113 -48.712868 
L 73.806578 -48.487094 
L 75.336044 -48.200953 
L 76.865509 -47.878774 
L 78.394975 -47.545186 
L 79.92444 -47.222099 
L 81.453906 -46.926559 
L 82.983371 -46.669688 
L 84.512837 -46.4567 
L 86.042302 -46.287753 
L 87.571768 -46.15929 
L 89.101233 -46.065512 
L 90.630699 -45.999711 
L 92.160164 -45.955292 
L 93.68963 -45.926424 
L 95.219095 -45.90835 
L 96.748561 -45.897444 
L 98.278026 -45.891098 
L 99.807492 -45.887537 
L 101.336958 -45.885609 
L 102.866423 -45.884601 
L 104.395889 -45.884093 
L 105.925354 -45.883845 
L 107.45482 -45.883729 
L 108.984285 -45.883676 
L 110.513751 -45.883653 
L 112.043216 -45.883643 
L 113.572682 -45.883639 
L 115.102147 -45.883637 
L 116.631613 -45.883637 
L 118.161078 -45.883636 
L 119.690544 -45.883636 
L 121.220009 -45.883636 
L 122.749475 -45.883636 
L 124.27894 -45.883636 
L 125.808406 -45.883636 
L 127.337871 -45.883636 
L 128.867337 -45.883636 
L 130.396802 -45.883637 
L 131.926268 -45.883637 
L 133.455733 -45.883639 
L 134.985199 -45.883642 
L 136.514664 -45.88365 
L 138.04413 -45.883666 
L 139.573595 -45.883702 
L 141.103061 -45.883776 
L 142.632526 -45.883923 
L 144.161992 -45.884208 
L 145.691457 -45.88474 
L 147.220923 -45.8857 
L 148.750388 -45.887379 
L 150.279854 -45.890213 
L 151.809319 -45.894838 
L 153.338785 -45.902137 
L 154.86825 -45.91327 
L 156.397716 -45.929684 
L 157.927181 -45.953083 
L 159.456647 -45.985341 
L 160.986112 -46.028365 
L 162.515578 -46.083921 
L 164.045043 -46.153437 
L 165.574509 -46.237846 
L 167.103974 -46.337499 
L 168.63344 -46.452197 
L 170.162905 -46.581372 
L 171.692371 -46.724403 
L 173.221836 -46.881056 
L 174.751302 -47.051985 
L 176.280767 -47.239249 
L 177.810233 -47.446798 
L 179.339698 -47.680886 
L 180.869164 -47.950435 
L 182.39863 -48.267315 
L 183.928095 -48.646578 
L 185.457561 -49.106596 
L 186.987026 -49.669121 
L 188.516492 -50.359254 
L 190.045957 -51.205378 
L 191.575423 -52.239094 
L 193.104888 -53.495142 
L 194.634354 -55.011274 
L 196.163819 -56.827927 
L 197.693285 -58.987501 
L 199.22275 -61.532986 
L 200.752216 -64.505679 
L 202.281681 -67.941864 
L 203.811147 -71.868618 
L 205.340612 -76.299263 
L 206.870078 -81.229204 
L 208.399543 -86.632827 
L 209.929009 -92.461954 
L 211.458474 -98.646287 
L 212.98794 -105.096403 
L 214.517405 -111.709707 
L 216.046871 -118.379131 
L 217.576336 -125.003478 
L 219.105802 -131.497564 
L 220.635267 -137.80001 
L 222.164733 -143.876878 
L 223.694198 -149.720165 
L 225.223664 -155.341376 
L 226.753129 -160.761587 
L 228.282595 -166.000214 
L 229.81206 -171.064968 
L 231.341526 -175.94506 
L 232.870991 -180.608807 
L 234.400457 -185.005653 
L 235.929922 -189.071648 
L 237.459388 -192.736859 
L 238.988853 -195.933111 
L 240.518319 -198.600777 
L 242.047784 -200.693663 
L 243.57725 -202.181193 
L 245.106715 -203.047458 
L 246.636181 -203.287741 
L 248.165646 -202.904349 
L 249.695112 -201.903966 
L 251.224577 -200.297727 
L 252.754043 -198.103855 
L 254.283508 -195.351579 
L 255.812974 -192.084716 
L 257.342439 -188.363438 
L 258.871905 -184.263297 
L 260.40137 -179.871397 
L 261.930836 -175.280424 
L 263.460302 -170.581969 
L 264.989767 -165.860863 
L 266.519233 -161.191843 
L 268.048698 -156.638643 
L 269.578164 -152.254231 
L 271.107629 -148.08052 
L 272.637095 -144.147138 
L 274.16656 -140.470406 
L 275.696026 -137.054052 
L 277.225491 -133.892458 
L 278.754957 -130.976188 
L 280.284422 -128.298553 
L 281.813888 -125.861523 
L 283.343353 -123.679442 
L 284.872819 -121.779706 
L 286.402284 -120.200355 
L 287.93175 -118.985032 
L 289.461215 -118.17618 
L 290.990681 -117.807684 
L 292.520146 -117.898405 
L 294.049612 -118.447997 
L 295.579077 -119.435975 
L 297.108543 -120.824278 
L 298.638008 -122.562703 
L 300.167474 -124.595761 
L 301.696939 -126.869127 
L 303.226405 -129.334128 
L 304.75587 -131.949658 
L 306.285336 -134.681985 
L 307.814801 -137.503371 
L 309.344267 -140.390344 
L 310.873732 -143.321998 
L 312.403198 -146.278383 
L 313.932663 -149.238918 
L 315.462129 -152.18076 
L 316.991594 -155.077079 
L 318.52106 -157.895006 
L 320.050525 -160.593189 
L 321.579991 -163.119491 
L 323.109456 -165.410352 
L 324.638922 -167.393274 
L 326.168387 -168.99264 
L 327.697853 -170.137383 
L 329.227318 -170.768307 
L 330.756784 -170.843325 
L 332.286249 -170.339897 
L 333.815715 -169.254799 
L 335.34518 -167.601742 
L 336.874646 -165.407481 
L 338.404111 -162.707067 
L 339.933577 -159.538931 
L 341.463042 -155.940472 
L 342.992508 -151.944802 
L 344.521974 -147.579153 
L 346.051439 -142.865261 
L 347.580905 -137.821731 
L 349.11037 -132.46802 
L 350.639836 -126.829381 
L 352.169301 -120.94185 
L 353.698767 -114.856327 
L 355.228232 -108.64082 
L 356.757698 -102.379989 
L 358.287163 -96.17136 
L 359.816629 -90.11829 
L 361.346094 -84.321039 
L 362.87556 -78.868216 
L 364.405025 -73.830489 
L 365.934491 -69.257311 
L 367.463956 -65.176384 
L 368.993422 -61.595154 
L 370.522887 -58.503596 
L 372.052353 -55.877667 
L 373.581818 -53.682951 
L 373.581818 -54.518589 
L 373.581818 -54.518589 
L 372.052353 -56.861033 
L 370.522887 -59.64273 
L 368.993422 -62.895297 
L 367.463956 -66.63981 
L 365.934491 -70.88352 
L 364.405025 -75.617103 
L 362.87556 -80.813033 
L 361.346094 -86.425526 
L 359.816629 -92.392161 
L 358.287163 -98.63684 
L 356.757698 -105.07347 
L 355.228232 -111.61003 
L 353.698767 -118.153133 
L 352.169301 -124.613243 
L 350.639836 -130.909877 
L 349.11037 -136.975406 
L 347.580905 -142.756256 
L 346.051439 -148.211179 
L 344.521974 -153.307172 
L 342.992508 -158.014253 
L 341.463042 -162.300559 
L 339.933577 -166.129137 
L 338.404111 -169.457387 
L 336.874646 -172.239493 
L 335.34518 -174.431474 
L 333.815715 -175.997848 
L 332.286249 -176.918491 
L 330.756784 -177.194153 
L 329.227318 -176.84936 
L 327.697853 -175.931966 
L 326.168387 -174.50943 
L 324.638922 -172.662681 
L 323.109456 -170.478955 
L 321.579991 -168.044838 
L 320.050525 -165.440098 
L 318.52106 -162.732343 
L 316.991594 -159.972774 
L 315.462129 -157.194034 
L 313.932663 -154.411383 
L 312.403198 -151.627477 
L 310.873732 -148.839492 
L 309.344267 -146.046583 
L 307.814801 -143.255986 
L 306.285336 -140.48686 
L 304.75587 -137.771701 
L 303.226405 -135.155494 
L 301.696939 -132.692934 
L 300.167474 -130.444163 
L 298.638008 -128.469593 
L 297.108543 -126.824611 
L 295.579077 -125.554867 
L 294.049612 -124.692591 
L 292.520146 -124.254184 
L 290.990681 -124.239392 
L 289.461215 -124.6325 
L 287.93175 -125.405765 
L 286.402284 -126.524769 
L 284.872819 -127.954725 
L 283.343353 -129.666315 
L 281.813888 -131.639671 
L 280.284422 -133.865593 
L 278.754957 -136.344078 
L 277.225491 -139.081164 
L 275.696026 -142.085554 
L 274.16656 -145.366037 
L 272.637095 -148.929758 
L 271.107629 -152.780471 
L 269.578164 -156.915747 
L 268.048698 -161.322582 
L 266.519233 -165.972048 
L 264.989767 -170.814768 
L 263.460302 -175.779204 
L 261.930836 -180.773501 
L 260.40137 -185.690262 
L 258.871905 -190.413225 
L 257.342439 -194.825139 
L 255.812974 -198.816185 
L 254.283508 -202.292001 
L 252.754043 -205.180059 
L 251.224577 -207.433234 
L 249.695112 -209.02999 
L 248.165646 -209.97135 
L 246.636181 -210.275573 
L 245.106715 -209.97179 
L 243.57725 -209.093864 
L 242.047784 -207.67563 
L 240.518319 -205.74848 
L 238.988853 -203.341735 
L 237.459388 -200.485036 
L 235.929922 -197.210709 
L 234.400457 -193.554021 
L 232.870991 -189.550439 
L 231.341526 -185.230633 
L 229.81206 -180.615042 
L 228.282595 -175.710077 
L 226.753129 -170.507662 
L 225.223664 -164.98891 
L 223.694198 -159.131664 
L 222.164733 -152.920581 
L 220.635267 -146.357701 
L 219.105802 -139.471207 
L 217.576336 -132.320311 
L 216.046871 -124.995032 
L 214.517405 -117.610653 
L 212.98794 -110.297793 
L 211.458474 -103.189932 
L 209.929009 -96.41063 
L 208.399543 -90.062691 
L 206.870078 -84.220954 
L 205.340612 -78.92965 
L 203.811147 -74.204155 
L 202.281681 -70.035986 
L 200.752216 -66.399218 
L 199.22275 -63.256636 
L 197.693285 -60.564725 
L 196.163819 -58.27729 
L 194.634354 -56.347964 
L 193.104888 -54.731895 
L 191.575423 -53.386825 
L 190.045957 -52.273705 
L 188.516492 -51.356935 
L 186.987026 -50.604318 
L 185.457561 -49.986835 
L 183.928095 -49.478384 
L 182.39863 -49.055592 
L 180.869164 -48.697832 
L 179.339698 -48.387433 
L 177.810233 -48.110015 
L 176.280767 -47.854784 
L 174.751302 -47.614624 
L 173.221836 -47.385886 
L 171.692371 -47.167859 
L 170.162905 -46.961978 
L 168.63344 -46.770898 
L 167.103974 -46.597588 
L 165.574509 -46.444563 
L 164.045043 -46.313361 
L 162.515578 -46.204305 
L 160.986112 -46.116512 
L 159.456647 -46.048102 
L 157.927181 -45.996524 
L 156.397716 -45.958905 
L 154.86825 -45.932365 
L 153.338785 -45.914256 
L 151.809319 -45.902305 
L 150.279854 -45.894677 
L 148.750388 -45.889968 
L 147.220923 -45.887157 
L 145.691457 -45.885534 
L 144.161992 -45.884627 
L 142.632526 -45.884138 
L 141.103061 -45.883882 
L 139.573595 -45.883753 
L 138.04413 -45.88369 
L 136.514664 -45.88366 
L 134.985199 -45.883647 
L 133.455733 -45.883641 
L 131.926268 -45.883638 
L 130.396802 -45.883637 
L 128.867337 -45.883637 
L 127.337871 -45.883636 
L 125.808406 -45.883636 
L 124.27894 -45.883636 
L 122.749475 -45.883636 
L 121.220009 -45.883636 
L 119.690544 -45.883636 
L 118.161078 -45.883636 
L 116.631613 -45.883637 
L 115.102147 -45.883637 
L 113.572682 -45.883639 
L 112.043216 -45.883644 
L 110.513751 -45.883655 
L 108.984285 -45.883682 
L 107.45482 -45.883744 
L 105.925354 -45.88388 
L 104.395889 -45.884168 
L 102.866423 -45.88476 
L 101.336958 -45.885934 
L 99.807492 -45.88818 
L 98.278026 -45.892329 
L 96.748561 -45.899722 
L 95.219095 -45.912428 
L 93.68963 -45.933485 
L 92.160164 -45.967116 
L 90.630699 -46.018864 
L 89.101233 -46.095523 
L 87.571768 -46.204776 
L 86.042302 -46.354436 
L 84.512837 -46.551261 
L 82.983371 -46.799394 
L 81.453906 -47.098652 
L 79.92444 -47.442959 
L 78.394975 -47.819357 
L 76.865509 -48.207991 
L 75.336044 -48.583332 
L 73.806578 -48.91669 
L 72.277113 -49.179719 
L 70.747647 -49.348363 
L 69.218182 -49.406473 
z
" style="stroke: #ff7f0e; stroke-opacity: 0.2"/>
    </defs>
    <g clip-path="url(#pcba000fcd7)">
     <use xlink:href="#m2d2b1603a2" x="0" y="288" style="fill: #ff7f0e; fill-opacity: 0.2; stroke: #ff7f0e; stroke-opacity: 0.2"/>
    </g>
   </g>
   <g id="matplotlib.axis_1">
    <g id="xtick_1">
     <g id="line2d_1">
      <defs>
       <path id="me6d7cf95e8" d="M 0 0 
L 0 3.5 
" style="stroke: #000000; stroke-width: 0.8"/>
      </defs>
      <g>
       <use xlink:href="#me6d7cf95e8" x="96.210742" y="252" style="stroke: #000000; stroke-width: 0.8"/>
      </g>
     </g>
     <g id="text_1">
      <!-- $\mathdefault{10^{1}}$ -->
      <g transform="translate(87.410742 266.598437)scale(0.1 -0.1)">
       <defs>
        <path id="DejaVuSans-31" d="M 794 531 
L 1825 531 
L 1825 4091 
L 703 3866 
L 703 4441 
L 1819 4666 
L 2450 4666 
L 2450 531 
L 3481 531 
L 3481 0 
L 794 0 
L 794 531 
z
" transform="scale(0.015625)"/>
        <path id="DejaVuSans-30" d="M 2034 4250 
Q 1547 4250 1301 3770 
Q 1056 3291 1056 2328 
Q 1056 1369 1301 889 
Q 1547 409 2034 409 
Q 2525 409 2770 889 
Q 3016 1369 3016 2328 
Q 3016 3291 2770 3770 
Q 2525 4250 2034 4250 
z
M 2034 4750 
Q 2819 4750 3233 4129 
Q 3647 3509 3647 2328 
Q 3647 1150 3233 529 
Q 2819 -91 2034 -91 
Q 1250 -91 836 529 
Q 422 1150 422 2328 
Q 422 3509 836 4129 
Q 1250 4750 2034 4750 
z
" transform="scale(0.015625)"/>
       </defs>
       <use xlink:href="#DejaVuSans-31" transform="translate(0 0.684375)"/>
       <use xlink:href="#DejaVuSans-30" transform="translate(63.623047 0.684375)"/>
       <use xlink:href="#DejaVuSans-31" transform="translate(128.203125 38.965625)scale(0.7)"/>
      </g>
     </g>
    </g>
    <g id="xtick_2">
     <g id="line2d_2">
      <g>
       <use xlink:href="#me6d7cf95e8" x="173.44599" y="252" style="stroke: #000000; stroke-width: 0.8"/>
      </g>
     </g>
     <g id="text_2">
      <!-- $\mathdefault{10^{3}}$ -->
      <g transform="translate(164.64599 266.598437)scale(0.1 -0.1)">
       <defs>
        <path id="DejaVuSans-33" d="M 2597 2516 
Q 3050 2419 3304 2112 
Q 3559 1806 3559 1356 
Q 3559 666 3084 287 
Q 2609 -91 1734 -91 
Q 1441 -91 1130 -33 
Q 819 25 488 141 
L 488 750 
Q 750 597 1062 519 
Q 1375 441 1716 441 
Q 2309 441 2620 675 
Q 2931 909 2931 1356 
Q 2931 1769 2642 2001 
Q 2353 2234 1838 2234 
L 1294 2234 
L 1294 2753 
L 1863 2753 
Q 2328 2753 2575 2939 
Q 2822 3125 2822 3475 
Q 2822 3834 2567 4026 
Q 2313 4219 1838 4219 
Q 1578 4219 1281 4162 
Q 984 4106 628 3988 
L 628 4550 
Q 988 4650 1302 4700 
Q 1616 4750 1894 4750 
Q 2613 4750 3031 4423 
Q 3450 4097 3450 3541 
Q 3450 3153 3228 2886 
Q 3006 2619 2597 2516 
z
" transform="scale(0.015625)"/>
       </defs>
       <use xlink:href="#DejaVuSans-31" transform="translate(0 0.765625)"/>
       <use xlink:href="#DejaVuSans-30" transform="translate(63.623047 0.765625)"/>
       <use xlink:href="#DejaVuSans-33" transform="translate(128.203125 39.046875)scale(0.7)"/>
      </g>
     </g>
    </g>
    <g id="xtick_3">
     <g id="line2d_3">
      <g>
       <use xlink:href="#me6d7cf95e8" x="250.681237" y="252" style="stroke: #000000; stroke-width: 0.8"/>
      </g>
     </g>
     <g id="text_3">
      <!-- $\mathdefault{10^{5}}$ -->
      <g transform="translate(241.881237 266.598437)scale(0.1 -0.1)">
       <defs>
        <path id="DejaVuSans-35" d="M 691 4666 
L 3169 4666 
L 3169 4134 
L 1269 4134 
L 1269 2991 
Q 1406 3038 1543 3061 
Q 1681 3084 1819 3084 
Q 2600 3084 3056 2656 
Q 3513 2228 3513 1497 
Q 3513 744 3044 326 
Q 2575 -91 1722 -91 
Q 1428 -91 1123 -41 
Q 819 9 494 109 
L 494 744 
Q 775 591 1075 516 
Q 1375 441 1709 441 
Q 2250 441 2565 725 
Q 2881 1009 2881 1497 
Q 2881 1984 2565 2268 
Q 2250 2553 1709 2553 
Q 1456 2553 1204 2497 
Q 953 2441 691 2322 
L 691 4666 
z
" transform="scale(0.015625)"/>
       </defs>
       <use xlink:href="#DejaVuSans-31" transform="translate(0 0.684375)"/>
       <use xlink:href="#DejaVuSans-30" transform="translate(63.623047 0.684375)"/>
       <use xlink:href="#DejaVuSans-35" transform="translate(128.203125 38.965625)scale(0.7)"/>
      </g>
     </g>
    </g>
    <g id="xtick_4">
     <g id="line2d_4">
      <g>
       <use xlink:href="#me6d7cf95e8" x="327.916484" y="252" style="stroke: #000000; stroke-width: 0.8"/>
      </g>
     </g>
     <g id="text_4">
      <!-- $\mathdefault{10^{7}}$ -->
      <g transform="translate(319.116484 266.598437)scale(0.1 -0.1)">
       <defs>
        <path id="DejaVuSans-37" d="M 525 4666 
L 3525 4666 
L 3525 4397 
L 1831 0 
L 1172 0 
L 2766 4134 
L 525 4134 
L 525 4666 
z
" transform="scale(0.015625)"/>
       </defs>
       <use xlink:href="#DejaVuSans-31" transform="translate(0 0.684375)"/>
       <use xlink:href="#DejaVuSans-30" transform="translate(63.623047 0.684375)"/>
       <use xlink:href="#DejaVuSans-37" transform="translate(128.203125 38.965625)scale(0.7)"/>
      </g>
     </g>
    </g>
    <g id="text_5">
     <!-- Length -->
     <g transform="translate(204.153125 280.276563)scale(0.1 -0.1)">
      <defs>
       <path id="DejaVuSans-4c" d="M 628 4666 
L 1259 4666 
L 1259 531 
L 3531 531 
L 3531 0 
L 628 0 
L 628 4666 
z
" transform="scale(0.015625)"/>
       <path id="DejaVuSans-65" d="M 3597 1894 
L 3597 1613 
L 953 1613 
Q 991 1019 1311 708 
Q 1631 397 2203 397 
Q 2534 397 2845 478 
Q 3156 559 3463 722 
L 3463 178 
Q 3153 47 2828 -22 
Q 2503 -91 2169 -91 
Q 1331 -91 842 396 
Q 353 884 353 1716 
Q 353 2575 817 3079 
Q 1281 3584 2069 3584 
Q 2775 3584 3186 3129 
Q 3597 2675 3597 1894 
z
M 3022 2063 
Q 3016 2534 2758 2815 
Q 2500 3097 2075 3097 
Q 1594 3097 1305 2825 
Q 1016 2553 972 2059 
L 3022 2063 
z
" transform="scale(0.015625)"/>
       <path id="DejaVuSans-6e" d="M 3513 2113 
L 3513 0 
L 2938 0 
L 2938 2094 
Q 2938 2591 2744 2837 
Q 2550 3084 2163 3084 
Q 1697 3084 1428 2787 
Q 1159 2491 1159 1978 
L 1159 0 
L 581 0 
L 581 3500 
L 1159 3500 
L 1159 2956 
Q 1366 3272 1645 3428 
Q 1925 3584 2291 3584 
Q 2894 3584 3203 3211 
Q 3513 2838 3513 2113 
z
" transform="scale(0.015625)"/>
       <path id="DejaVuSans-67" d="M 2906 1791 
Q 2906 2416 2648 2759 
Q 2391 3103 1925 3103 
Q 1463 3103 1205 2759 
Q 947 2416 947 1791 
Q 947 1169 1205 825 
Q 1463 481 1925 481 
Q 2391 481 2648 825 
Q 2906 1169 2906 1791 
z
M 3481 434 
Q 3481 -459 3084 -895 
Q 2688 -1331 1869 -1331 
Q 1566 -1331 1297 -1286 
Q 1028 -1241 775 -1147 
L 775 -588 
Q 1028 -725 1275 -790 
Q 1522 -856 1778 -856 
Q 2344 -856 2625 -561 
Q 2906 -266 2906 331 
L 2906 616 
Q 2728 306 2450 153 
Q 2172 0 1784 0 
Q 1141 0 747 490 
Q 353 981 353 1791 
Q 353 2603 747 3093 
Q 1141 3584 1784 3584 
Q 2172 3584 2450 3431 
Q 2728 3278 2906 2969 
L 2906 3500 
L 3481 3500 
L 3481 434 
z
" transform="scale(0.015625)"/>
       <path id="DejaVuSans-74" d="M 1172 4494 
L 1172 3500 
L 2356 3500 
L 2356 3053 
L 1172 3053 
L 1172 1153 
Q 1172 725 1289 603 
Q 1406 481 1766 481 
L 2356 481 
L 2356 0 
L 1766 0 
Q 1100 0 847 248 
Q 594 497 594 1153 
L 594 3053 
L 172 3053 
L 172 3500 
L 594 3500 
L 594 4494 
L 1172 4494 
z
" transform="scale(0.015625)"/>
       <path id="DejaVuSans-68" d="M 3513 2113 
L 3513 0 
L 2938 0 
L 2938 2094 
Q 2938 2591 2744 2837 
Q 2550 3084 2163 3084 
Q 1697 3084 1428 2787 
Q 1159 2491 1159 1978 
L 1159 0 
L 581 0 
L 581 4863 
L 1159 4863 
L 1159 2956 
Q 1366 3272 1645 3428 
Q 1925 3584 2291 3584 
Q 2894 3584 3203 3211 
Q 3513 2838 3513 2113 
z
" transform="scale(0.015625)"/>
      </defs>
      <use xlink:href="#DejaVuSans-4c"/>
      <use xlink:href="#DejaVuSans-65" x="53.962891"/>
      <use xlink:href="#DejaVuSans-6e" x="115.486328"/>
      <use xlink:href="#DejaVuSans-67" x="178.865234"/>
      <use xlink:href="#DejaVuSans-74" x="242.341797"/>
      <use xlink:href="#DejaVuSans-68" x="281.550781"/>
     </g>
    </g>
   </g>
   <g id="matplotlib.axis_2">
    <g id="ytick_1">
     <g id="line2d_5">
      <defs>
       <path id="m1668b719bf" d="M 0 0 
L -3.5 0 
" style="stroke: #000000; stroke-width: 0.8"/>
      </defs>
      <g>
       <use xlink:href="#m1668b719bf" x="54" y="242.116364" style="stroke: #000000; stroke-width: 0.8"/>
      </g>
     </g>
     <g id="text_6">
      <!-- 0.000 -->
      <g transform="translate(18.371875 245.915582)scale(0.1 -0.1)">
       <defs>
        <path id="DejaVuSans-2e" d="M 684 794 
L 1344 794 
L 1344 0 
L 684 0 
L 684 794 
z
" transform="scale(0.015625)"/>
       </defs>
       <use xlink:href="#DejaVuSans-30"/>
       <use xlink:href="#DejaVuSans-2e" x="63.623047"/>
       <use xlink:href="#DejaVuSans-30" x="95.410156"/>
       <use xlink:href="#DejaVuSans-30" x="159.033203"/>
       <use xlink:href="#DejaVuSans-30" x="222.65625"/>
      </g>
     </g>
    </g>
    <g id="ytick_2">
     <g id="line2d_6">
      <g>
       <use xlink:href="#m1668b719bf" x="54" y="216.517917" style="stroke: #000000; stroke-width: 0.8"/>
      </g>
     </g>
     <g id="text_7">
      <!-- 0.025 -->
      <g transform="translate(18.371875 220.317136)scale(0.1 -0.1)">
       <defs>
        <path id="DejaVuSans-32" d="M 1228 531 
L 3431 531 
L 3431 0 
L 469 0 
L 469 531 
Q 828 903 1448 1529 
Q 2069 2156 2228 2338 
Q 2531 2678 2651 2914 
Q 2772 3150 2772 3378 
Q 2772 3750 2511 3984 
Q 2250 4219 1831 4219 
Q 1534 4219 1204 4116 
Q 875 4013 500 3803 
L 500 4441 
Q 881 4594 1212 4672 
Q 1544 4750 1819 4750 
Q 2544 4750 2975 4387 
Q 3406 4025 3406 3419 
Q 3406 3131 3298 2873 
Q 3191 2616 2906 2266 
Q 2828 2175 2409 1742 
Q 1991 1309 1228 531 
z
" transform="scale(0.015625)"/>
       </defs>
       <use xlink:href="#DejaVuSans-30"/>
       <use xlink:href="#DejaVuSans-2e" x="63.623047"/>
       <use xlink:href="#DejaVuSans-30" x="95.410156"/>
       <use xlink:href="#DejaVuSans-32" x="159.033203"/>
       <use xlink:href="#DejaVuSans-35" x="222.65625"/>
      </g>
     </g>
    </g>
    <g id="ytick_3">
     <g id="line2d_7">
      <g>
       <use xlink:href="#m1668b719bf" x="54" y="190.919471" style="stroke: #000000; stroke-width: 0.8"/>
      </g>
     </g>
     <g id="text_8">
      <!-- 0.050 -->
      <g transform="translate(18.371875 194.71869)scale(0.1 -0.1)">
       <use xlink:href="#DejaVuSans-30"/>
       <use xlink:href="#DejaVuSans-2e" x="63.623047"/>
       <use xlink:href="#DejaVuSans-30" x="95.410156"/>
       <use xlink:href="#DejaVuSans-35" x="159.033203"/>
       <use xlink:href="#DejaVuSans-30" x="222.65625"/>
      </g>
     </g>
    </g>
    <g id="ytick_4">
     <g id="line2d_8">
      <g>
       <use xlink:href="#m1668b719bf" x="54" y="165.321025" style="stroke: #000000; stroke-width: 0.8"/>
      </g>
     </g>
     <g id="text_9">
      <!-- 0.075 -->
      <g transform="translate(18.371875 169.120244)scale(0.1 -0.1)">
       <use xlink:href="#DejaVuSans-30"/>
       <use xlink:href="#DejaVuSans-2e" x="63.623047"/>
       <use xlink:href="#DejaVuSans-30" x="95.410156"/>
       <use xlink:href="#DejaVuSans-37" x="159.033203"/>
       <use xlink:href="#DejaVuSans-35" x="222.65625"/>
      </g>
     </g>
    </g>
    <g id="ytick_5">
     <g id="line2d_9">
      <g>
       <use xlink:href="#m1668b719bf" x="54" y="139.722579" style="stroke: #000000; stroke-width: 0.8"/>
      </g>
     </g>
     <g id="text_10">
      <!-- 0.100 -->
      <g transform="translate(18.371875 143.521798)scale(0.1 -0.1)">
       <use xlink:href="#DejaVuSans-30"/>
       <use xlink:href="#DejaVuSans-2e" x="63.623047"/>
       <use xlink:href="#DejaVuSans-31" x="95.410156"/>
       <use xlink:href="#DejaVuSans-30" x="159.033203"/>
       <use xlink:href="#DejaVuSans-30" x="222.65625"/>
      </g>
     </g>
    </g>
    <g id="ytick_6">
     <g id="line2d_10">
      <g>
       <use xlink:href="#m1668b719bf" x="54" y="114.124133" style="stroke: #000000; stroke-width: 0.8"/>
      </g>
     </g>
     <g id="text_11">
      <!-- 0.125 -->
      <g transform="translate(18.371875 117.923351)scale(0.1 -0.1)">
       <use xlink:href="#DejaVuSans-30"/>
       <use xlink:href="#DejaVuSans-2e" x="63.623047"/>
       <use xlink:href="#DejaVuSans-31" x="95.410156"/>
       <use xlink:href="#DejaVuSans-32" x="159.033203"/>
       <use xlink:href="#DejaVuSans-35" x="222.65625"/>
      </g>
     </g>
    </g>
    <g id="ytick_7">
     <g id="line2d_11">
      <g>
       <use xlink:href="#m1668b719bf" x="54" y="88.525686" style="stroke: #000000; stroke-width: 0.8"/>
      </g>
     </g>
     <g id="text_12">
      <!-- 0.150 -->
      <g transform="translate(18.371875 92.324905)scale(0.1 -0.1)">
       <use xlink:href="#DejaVuSans-30"/>
       <use xlink:href="#DejaVuSans-2e" x="63.623047"/>
       <use xlink:href="#DejaVuSans-31" x="95.410156"/>
       <use xlink:href="#DejaVuSans-35" x="159.033203"/>
       <use xlink:href="#DejaVuSans-30" x="222.65625"/>
      </g>
     </g>
    </g>
    <g id="ytick_8">
     <g id="line2d_12">
      <g>
       <use xlink:href="#m1668b719bf" x="54" y="62.92724" style="stroke: #000000; stroke-width: 0.8"/>
      </g>
     </g>
     <g id="text_13">
      <!-- 0.175 -->
      <g transform="translate(18.371875 66.726459)scale(0.1 -0.1)">
       <use xlink:href="#DejaVuSans-30"/>
       <use xlink:href="#DejaVuSans-2e" x="63.623047"/>
       <use xlink:href="#DejaVuSans-31" x="95.410156"/>
       <use xlink:href="#DejaVuSans-37" x="159.033203"/>
       <use xlink:href="#DejaVuSans-35" x="222.65625"/>
      </g>
     </g>
    </g>
    <g id="ytick_9">
     <g id="line2d_13">
      <g>
       <use xlink:href="#m1668b719bf" x="54" y="37.328794" style="stroke: #000000; stroke-width: 0.8"/>
      </g>
     </g>
     <g id="text_14">
      <!-- 0.200 -->
      <g transform="translate(18.371875 41.128013)scale(0.1 -0.1)">
       <use xlink:href="#DejaVuSans-30"/>
       <use xlink:href="#DejaVuSans-2e" x="63.623047"/>
       <use xlink:href="#DejaVuSans-32" x="95.410156"/>
       <use xlink:href="#DejaVuSans-30" x="159.033203"/>
       <use xlink:href="#DejaVuSans-30" x="222.65625"/>
      </g>
     </g>
    </g>
    <g id="text_15">
     <!-- Density -->
     <g transform="translate(12.292187 162.288594)rotate(-90)scale(0.1 -0.1)">
      <defs>
       <path id="DejaVuSans-44" d="M 1259 4147 
L 1259 519 
L 2022 519 
Q 2988 519 3436 956 
Q 3884 1394 3884 2338 
Q 3884 3275 3436 3711 
Q 2988 4147 2022 4147 
L 1259 4147 
z
M 628 4666 
L 1925 4666 
Q 3281 4666 3915 4102 
Q 4550 3538 4550 2338 
Q 4550 1131 3912 565 
Q 3275 0 1925 0 
L 628 0 
L 628 4666 
z
" transform="scale(0.015625)"/>
       <path id="DejaVuSans-73" d="M 2834 3397 
L 2834 2853 
Q 2591 2978 2328 3040 
Q 2066 3103 1784 3103 
Q 1356 3103 1142 2972 
Q 928 2841 928 2578 
Q 928 2378 1081 2264 
Q 1234 2150 1697 2047 
L 1894 2003 
Q 2506 1872 2764 1633 
Q 3022 1394 3022 966 
Q 3022 478 2636 193 
Q 2250 -91 1575 -91 
Q 1294 -91 989 -36 
Q 684 19 347 128 
L 347 722 
Q 666 556 975 473 
Q 1284 391 1588 391 
Q 1994 391 2212 530 
Q 2431 669 2431 922 
Q 2431 1156 2273 1281 
Q 2116 1406 1581 1522 
L 1381 1569 
Q 847 1681 609 1914 
Q 372 2147 372 2553 
Q 372 3047 722 3315 
Q 1072 3584 1716 3584 
Q 2034 3584 2315 3537 
Q 2597 3491 2834 3397 
z
" transform="scale(0.015625)"/>
       <path id="DejaVuSans-69" d="M 603 3500 
L 1178 3500 
L 1178 0 
L 603 0 
L 603 3500 
z
M 603 4863 
L 1178 4863 
L 1178 4134 
L 603 4134 
L 603 4863 
z
" transform="scale(0.015625)"/>
       <path id="DejaVuSans-79" d="M 2059 -325 
Q 1816 -950 1584 -1140 
Q 1353 -1331 966 -1331 
L 506 -1331 
L 506 -850 
L 844 -850 
Q 1081 -850 1212 -737 
Q 1344 -625 1503 -206 
L 1606 56 
L 191 3500 
L 800 3500 
L 1894 763 
L 2988 3500 
L 3597 3500 
L 2059 -325 
z
" transform="scale(0.015625)"/>
      </defs>
      <use xlink:href="#DejaVuSans-44"/>
      <use xlink:href="#DejaVuSans-65" x="77.001953"/>
      <use xlink:href="#DejaVuSans-6e" x="138.525391"/>
      <use xlink:href="#DejaVuSans-73" x="201.904297"/>
      <use xlink:href="#DejaVuSans-69" x="254.003906"/>
      <use xlink:href="#DejaVuSans-74" x="281.787109"/>
      <use xlink:href="#DejaVuSans-79" x="320.996094"/>
     </g>
    </g>
   </g>
   <g id="line2d_14">
    <path d="M 69.218182 240.067432 
L 72.277113 240.199316 
L 76.865509 240.764486 
L 82.983371 241.583746 
L 87.571768 241.929585 
L 93.68963 242.087371 
L 110.513751 242.116353 
L 153.338785 242.009831 
L 157.927181 241.732144 
L 160.986112 241.333472 
L 164.045043 240.682986 
L 167.103974 239.73688 
L 170.162905 238.49465 
L 173.221836 236.998699 
L 177.810233 234.440756 
L 183.928095 230.942474 
L 190.045957 227.806999 
L 193.104888 226.095461 
L 194.634354 225.050395 
L 196.163819 223.800982 
L 197.693285 222.290143 
L 199.22275 220.469096 
L 200.752216 218.302306 
L 202.281681 215.770503 
L 203.811147 212.871045 
L 205.340612 209.615341 
L 206.870078 206.023671 
L 209.929009 197.916108 
L 212.98794 188.629793 
L 216.046871 178.042149 
L 219.105802 165.893575 
L 222.164733 152.017139 
L 225.223664 136.566183 
L 234.400457 87.729492 
L 235.929922 80.498041 
L 237.459388 73.844265 
L 238.988853 67.862492 
L 240.518319 62.629238 
L 242.047784 58.201193 
L 243.57725 54.613671 
L 245.106715 51.879431 
L 246.636181 49.987983 
L 248.165646 48.905824 
L 249.695112 48.578255 
L 251.224577 48.933325 
L 252.754043 49.888097 
L 254.283508 51.356764 
L 255.812974 53.259481 
L 257.342439 55.530323 
L 258.871905 58.122743 
L 260.40137 61.011313 
L 261.930836 64.189307 
L 263.460302 67.662568 
L 264.989767 71.440916 
L 268.048698 79.917095 
L 271.107629 89.460123 
L 278.754957 114.501444 
L 281.813888 123.417007 
L 284.872819 131.265561 
L 287.93175 138.150026 
L 290.990681 144.278129 
L 294.049612 149.779449 
L 297.108543 154.616406 
L 298.638008 156.735527 
L 300.167474 158.622482 
L 301.696939 160.257433 
L 303.226405 161.62906 
L 304.75587 162.73687 
L 306.285336 163.591633 
L 307.814801 164.21412 
L 309.344267 164.632762 
L 310.873732 164.881069 
L 313.932663 165.014904 
L 320.050525 164.971934 
L 321.579991 165.144588 
L 323.109456 165.464526 
L 324.638922 165.951895 
L 326.168387 166.611393 
L 327.697853 167.431586 
L 330.756784 169.446057 
L 335.34518 172.9555 
L 338.404111 175.53297 
L 339.933577 176.974771 
L 341.463042 178.585473 
L 342.992508 180.41659 
L 344.521974 182.509534 
L 346.051439 184.887469 
L 347.580905 187.549763 
L 350.639836 193.597726 
L 358.287163 209.788245 
L 361.346094 215.396343 
L 364.405025 220.300684 
L 367.463956 224.674729 
L 370.522887 228.676886 
L 373.581818 232.315081 
L 373.581818 232.315081 
" clip-path="url(#pcba000fcd7)" style="fill: none; stroke: #1f77b4; stroke-width: 1.5; stroke-linecap: square"/>
   </g>
   <g id="line2d_15">
    <path d="M 69.218182 238.843011 
L 72.277113 239.053706 
L 75.336044 239.607858 
L 82.983371 241.265459 
L 86.042302 241.678905 
L 90.630699 241.990713 
L 96.748561 242.101417 
L 124.27894 242.116364 
L 157.927181 242.025197 
L 164.045043 241.766601 
L 170.162905 241.228325 
L 176.280767 240.452983 
L 180.869164 239.675867 
L 183.928095 238.937519 
L 186.987026 237.863281 
L 188.516492 237.141906 
L 190.045957 236.260458 
L 191.575423 235.18704 
L 193.104888 233.886481 
L 194.634354 232.320381 
L 196.163819 230.447392 
L 197.693285 228.223887 
L 199.22275 225.605189 
L 200.752216 222.547552 
L 202.281681 219.011075 
L 203.811147 214.963614 
L 205.340612 210.385543 
L 206.870078 205.274921 
L 208.399543 199.652241 
L 211.458474 187.081891 
L 216.046871 166.312918 
L 219.105802 152.515615 
L 222.164733 139.60127 
L 225.223664 127.834857 
L 228.282595 117.144854 
L 231.341526 107.412154 
L 234.400457 98.720163 
L 235.929922 94.858821 
L 237.459388 91.389052 
L 238.988853 88.362577 
L 240.518319 85.825372 
L 242.047784 83.815353 
L 243.57725 82.362471 
L 245.106715 81.490376 
L 246.636181 81.218343 
L 248.165646 81.562151 
L 249.695112 82.533022 
L 251.224577 84.134519 
L 252.754043 86.358043 
L 254.283508 89.17821 
L 255.812974 92.54955 
L 257.342439 96.405712 
L 260.40137 105.21917 
L 269.578164 133.415011 
L 272.637095 141.461552 
L 275.696026 148.430197 
L 277.225491 151.513189 
L 278.754957 154.339867 
L 280.284422 156.917927 
L 281.813888 159.249403 
L 283.343353 161.327122 
L 284.872819 163.132785 
L 286.402284 164.637438 
L 287.93175 165.804601 
L 289.461215 166.59566 
L 290.990681 166.976462 
L 292.520146 166.923705 
L 294.049612 166.429706 
L 295.579077 165.504579 
L 297.108543 164.175556 
L 298.638008 162.483852 
L 300.167474 160.480038 
L 301.696939 158.218969 
L 304.75587 153.13932 
L 309.344267 144.781536 
L 318.52106 127.686325 
L 321.579991 122.417835 
L 323.109456 120.055347 
L 324.638922 117.972023 
L 326.168387 116.248965 
L 327.697853 114.965326 
L 329.227318 114.191167 
L 330.756784 113.981261 
L 332.286249 114.370806 
L 333.815715 115.373676 
L 335.34518 116.983392 
L 336.874646 119.176513 
L 338.404111 121.917773 
L 339.933577 125.165966 
L 341.463042 128.879484 
L 342.992508 133.020472 
L 344.521974 137.556837 
L 347.580905 147.711007 
L 350.639836 159.130371 
L 353.698767 171.49527 
L 359.816629 196.744774 
L 362.87556 208.159376 
L 364.405025 213.276204 
L 365.934491 217.929584 
L 367.463956 222.091903 
L 368.993422 225.754775 
L 370.522887 228.926837 
L 372.052353 231.63065 
L 373.581818 233.89923 
L 373.581818 233.89923 
" clip-path="url(#pcba000fcd7)" style="fill: none; stroke: #ff7f0e; stroke-width: 1.5; stroke-linecap: square"/>
   </g>
   <g id="line2d_16"/>
   <g id="line2d_17"/>
   <g id="line2d_18">
    <path clip-path="url(#pcba000fcd7)" style="fill: none; stroke-dasharray: 5.55,2.4; stroke-dashoffset: 0; stroke: #808080; stroke-width: 1.5"/>
   </g>
   <g id="line2d_19">
    <path d="M 229.064933 252 
L 229.064933 34.56 
" clip-path="url(#pcba000fcd7)" style="fill: none; stroke-dasharray: 5.55,2.4; stroke-dashoffset: 0; stroke: #808080; stroke-width: 1.5"/>
   </g>
   <g id="line2d_20">
    <path d="M 300.949631 252 
L 300.949631 34.56 
" clip-path="url(#pcba000fcd7)" style="fill: none; stroke-dasharray: 5.55,2.4; stroke-dashoffset: 0; stroke: #808080; stroke-width: 1.5"/>
   </g>
   <g id="line2d_21">
    <path d="M 369.775583 252 
L 369.775583 34.56 
" clip-path="url(#pcba000fcd7)" style="fill: none; stroke-dasharray: 5.55,2.4; stroke-dashoffset: 0; stroke: #808080; stroke-width: 1.5"/>
   </g>
   <g id="line2d_22">
    <path clip-path="url(#pcba000fcd7)" style="fill: none; stroke-dasharray: 5.55,2.4; stroke-dashoffset: 0; stroke: #808080; stroke-width: 1.5"/>
   </g>
   <g id="patch_3">
    <path d="M 54 252 
L 54 34.56 
" style="fill: none; stroke: #000000; stroke-width: 0.8; stroke-linejoin: miter; stroke-linecap: square"/>
   </g>
   <g id="patch_4">
    <path d="M 388.8 252 
L 388.8 34.56 
" style="fill: none; stroke: #000000; stroke-width: 0.8; stroke-linejoin: miter; stroke-linecap: square"/>
   </g>
   <g id="patch_5">
    <path d="M 54 252 
L 388.8 252 
" style="fill: none; stroke: #000000; stroke-width: 0.8; stroke-linejoin: miter; stroke-linecap: square"/>
   </g>
   <g id="patch_6">
    <path d="M 54 34.56 
L 388.8 34.56 
" style="fill: none; stroke: #000000; stroke-width: 0.8; stroke-linejoin: miter; stroke-linecap: square"/>
   </g>
   <g id="legend_1">
    <g id="patch_7">
     <path d="M 61 86.594375 
L 99.3625 86.594375 
Q 101.3625 86.594375 101.3625 84.594375 
L 101.3625 41.56 
Q 101.3625 39.56 99.3625 39.56 
L 61 39.56 
Q 59 39.56 59 41.56 
L 59 84.594375 
Q 59 86.594375 61 86.594375 
z
" style="fill: #ffffff; opacity: 0.8; stroke: #cccccc; stroke-linejoin: miter"/>
    </g>
    <g id="text_16">
     <!-- Class -->
     <g transform="translate(67.027344 51.158438)scale(0.1 -0.1)">
      <defs>
       <path id="DejaVuSans-43" d="M 4122 4306 
L 4122 3641 
Q 3803 3938 3442 4084 
Q 3081 4231 2675 4231 
Q 1875 4231 1450 3742 
Q 1025 3253 1025 2328 
Q 1025 1406 1450 917 
Q 1875 428 2675 428 
Q 3081 428 3442 575 
Q 3803 722 4122 1019 
L 4122 359 
Q 3791 134 3420 21 
Q 3050 -91 2638 -91 
Q 1578 -91 968 557 
Q 359 1206 359 2328 
Q 359 3453 968 4101 
Q 1578 4750 2638 4750 
Q 3056 4750 3426 4639 
Q 3797 4528 4122 4306 
z
" transform="scale(0.015625)"/>
       <path id="DejaVuSans-6c" d="M 603 4863 
L 1178 4863 
L 1178 0 
L 603 0 
L 603 4863 
z
" transform="scale(0.015625)"/>
       <path id="DejaVuSans-61" d="M 2194 1759 
Q 1497 1759 1228 1600 
Q 959 1441 959 1056 
Q 959 750 1161 570 
Q 1363 391 1709 391 
Q 2188 391 2477 730 
Q 2766 1069 2766 1631 
L 2766 1759 
L 2194 1759 
z
M 3341 1997 
L 3341 0 
L 2766 0 
L 2766 531 
Q 2569 213 2275 61 
Q 1981 -91 1556 -91 
Q 1019 -91 701 211 
Q 384 513 384 1019 
Q 384 1609 779 1909 
Q 1175 2209 1959 2209 
L 2766 2209 
L 2766 2266 
Q 2766 2663 2505 2880 
Q 2244 3097 1772 3097 
Q 1472 3097 1187 3025 
Q 903 2953 641 2809 
L 641 3341 
Q 956 3463 1253 3523 
Q 1550 3584 1831 3584 
Q 2591 3584 2966 3190 
Q 3341 2797 3341 1997 
z
" transform="scale(0.015625)"/>
      </defs>
      <use xlink:href="#DejaVuSans-43"/>
      <use xlink:href="#DejaVuSans-6c" x="69.824219"/>
      <use xlink:href="#DejaVuSans-61" x="97.607422"/>
      <use xlink:href="#DejaVuSans-73" x="158.886719"/>
      <use xlink:href="#DejaVuSans-73" x="210.986328"/>
     </g>
    </g>
    <g id="line2d_23">
     <path d="M 63 62.336563 
L 73 62.336563 
L 83 62.336563 
" style="fill: none; stroke: #1f77b4; stroke-width: 1.5; stroke-linecap: square"/>
    </g>
    <g id="text_17">
     <!-- 0 -->
     <g transform="translate(91 65.836563)scale(0.1 -0.1)">
      <use xlink:href="#DejaVuSans-30"/>
     </g>
    </g>
    <g id="line2d_24">
     <path d="M 63 77.014688 
L 73 77.014688 
L 83 77.014688 
" style="fill: none; stroke: #ff7f0e; stroke-width: 1.5; stroke-linecap: square"/>
    </g>
    <g id="text_18">
     <!-- 1 -->
     <g transform="translate(91 80.514688)scale(0.1 -0.1)">
      <use xlink:href="#DejaVuSans-31"/>
     </g>
    </g>
   </g>
  </g>
 </g>
 <defs>
  <clipPath id="pcba000fcd7">
   <rect x="54" y="34.56" width="334.8" height="217.44"/>
  </clipPath>
 </defs>
</svg>
