<?xml version="1.0" encoding="utf-8" standalone="no"?>
<!DOCTYPE svg PUBLIC "-//W3C//DTD SVG 1.1//EN"
  "http://www.w3.org/Graphics/SVG/1.1/DTD/svg11.dtd">
<svg xmlns:xlink="http://www.w3.org/1999/xlink" width="432pt" height="288pt" viewBox="0 0 432 288" xmlns="http://www.w3.org/2000/svg" version="1.1">
 <metadata>
  <rdf:RDF xmlns:dc="http://purl.org/dc/elements/1.1/" xmlns:cc="http://creativecommons.org/ns#" xmlns:rdf="http://www.w3.org/1999/02/22-rdf-syntax-ns#">
   <cc:Work>
    <dc:type rdf:resource="http://purl.org/dc/dcmitype/StillImage"/>
    <dc:date>2022-02-04T09:32:21.339729</dc:date>
    <dc:format>image/svg+xml</dc:format>
    <dc:creator>
     <cc:Agent>
      <dc:title>Matplotlib v3.5.1, https://matplotlib.org/</dc:title>
     </cc:Agent>
    </dc:creator>
   </cc:Work>
  </rdf:RDF>
 </metadata>
 <defs>
  <style type="text/css">*{stroke-linejoin: round; stroke-linecap: butt}</style>
 </defs>
 <g id="figure_1">
  <g id="patch_1">
   <path d="M 0 288 
L 432 288 
L 432 0 
L 0 0 
L 0 288 
z
" style="fill: none"/>
  </g>
  <g id="axes_1">
   <g id="patch_2">
    <path d="M 54 252 
L 388.8 252 
L 388.8 34.56 
L 54 34.56 
z
" style="fill: #ffffff"/>
   </g>
   <g id="PolyCollection_1">
    <defs>
     <path id="m20de326172" d="M 69.218182 -49.920068 
L 69.218182 -49.195497 
L 70.747647 -49.139503 
L 72.277113 -48.977136 
L 73.806578 -48.724319 
L 75.336044 -48.404703 
L 76.865509 -48.046031 
L 78.394975 -47.6762 
L 79.92444 -47.319798 
L 81.453906 -46.995678 
L 82.983371 -46.715836 
L 84.512837 -46.485535 
L 86.042302 -46.304371 
L 87.571768 -46.167874 
L 89.101233 -46.069222 
L 90.630699 -46.000747 
L 92.160164 -45.955059 
L 93.68963 -45.925735 
L 95.219095 -45.907618 
L 96.748561 -45.89684 
L 98.278026 -45.890662 
L 99.807492 -45.887249 
L 101.336958 -45.885432 
L 102.866423 -45.884499 
L 104.395889 -45.884037 
L 105.925354 -45.883816 
L 107.45482 -45.883714 
L 108.984285 -45.883669 
L 110.513751 -45.88365 
L 112.043216 -45.883642 
L 113.572682 -45.883638 
L 115.102147 -45.883637 
L 116.631613 -45.883637 
L 118.161078 -45.883636 
L 119.690544 -45.883636 
L 121.220009 -45.883636 
L 122.749475 -45.883636 
L 124.27894 -45.883636 
L 125.808406 -45.883636 
L 127.337871 -45.883637 
L 128.867337 -45.883637 
L 130.396802 -45.883638 
L 131.926268 -45.883641 
L 133.455733 -45.883648 
L 134.985199 -45.883665 
L 136.514664 -45.883704 
L 138.04413 -45.88379 
L 139.573595 -45.883973 
L 141.103061 -45.88435 
L 142.632526 -45.885099 
L 144.161992 -45.886541 
L 145.691457 -45.889222 
L 147.220923 -45.894041 
L 148.750388 -45.902418 
L 150.279854 -45.916498 
L 151.809319 -45.939391 
L 153.338785 -45.975402 
L 154.86825 -46.030224 
L 156.397716 -46.111018 
L 157.927181 -46.226334 
L 159.456647 -46.385797 
L 160.986112 -46.599541 
L 162.515578 -46.8774 
L 164.045043 -47.227915 
L 165.574509 -47.657299 
L 167.103974 -48.168541 
L 168.63344 -48.760871 
L 170.162905 -49.429792 
L 171.692371 -50.167787 
L 173.221836 -50.965573 
L 174.751302 -51.813635 
L 176.280767 -52.703625 
L 177.810233 -53.629339 
L 179.339698 -54.587133 
L 180.869164 -55.575784 
L 182.39863 -56.595933 
L 183.928095 -57.64934 
L 185.457561 -58.738244 
L 186.987026 -59.86518 
L 188.516492 -61.0335 
L 190.045957 -62.248717 
L 191.575423 -63.520378 
L 193.104888 -64.863878 
L 194.634354 -66.301458 
L 196.163819 -67.86198 
L 197.693285 -69.579587 
L 199.22275 -71.491681 
L 200.752216 -73.636725 
L 202.281681 -76.052266 
L 203.811147 -78.773569 
L 205.340612 -81.833172 
L 206.870078 -85.261443 
L 208.399543 -89.087849 
L 209.929009 -93.342198 
L 211.458474 -98.054936 
L 212.98794 -103.255742 
L 214.517405 -108.970114 
L 216.046871 -115.214217 
L 217.576336 -121.988744 
L 219.105802 -129.272715 
L 220.635267 -137.018122 
L 222.164733 -145.146069 
L 223.694198 -153.544734 
L 225.223664 -162.069708 
L 226.753129 -170.549548 
L 228.282595 -178.803235 
L 229.81206 -186.67022 
L 231.341526 -194.033199 
L 232.870991 -200.817554 
L 234.400457 -206.980072 
L 235.929922 -212.500352 
L 237.459388 -217.374873 
L 238.988853 -221.610898 
L 240.518319 -225.219716 
L 242.047784 -228.210237 
L 243.57725 -230.584344 
L 245.106715 -232.335124 
L 246.636181 -233.448463 
L 248.165646 -233.907905 
L 249.695112 -233.702066 
L 251.224577 -232.833369 
L 252.754043 -231.326072 
L 254.283508 -229.230722 
L 255.812974 -226.622629 
L 257.342439 -223.594142 
L 258.871905 -220.243249 
L 260.40137 -216.662123 
L 261.930836 -212.92835 
L 263.460302 -209.100109 
L 264.989767 -205.215396 
L 266.519233 -201.294665 
L 268.048698 -197.345905 
L 269.578164 -193.370924 
L 271.107629 -189.371672 
L 272.637095 -185.35554 
L 274.16656 -181.338882 
L 275.696026 -177.348295 
L 277.225491 -173.419557 
L 278.754957 -169.594456 
L 280.284422 -165.916127 
L 281.813888 -162.423872 
L 283.343353 -159.148569 
L 284.872819 -156.109652 
L 286.402284 -153.314238 
L 287.93175 -150.758349 
L 289.461215 -148.429684 
L 290.990681 -146.311066 
L 292.520146 -144.383743 
L 294.049612 -142.630055 
L 295.579077 -141.035319 
L 297.108543 -139.589077 
L 298.638008 -138.285867 
L 300.167474 -137.125511 
L 301.696939 -136.112774 
L 303.226405 -135.256323 
L 304.75587 -134.567203 
L 306.285336 -134.057097 
L 307.814801 -133.736333 
L 309.344267 -133.611239 
L 310.873732 -133.680598 
L 312.403198 -133.931526 
L 313.932663 -134.335827 
L 315.462129 -134.848241 
L 316.991594 -135.407808 
L 318.52106 -135.942858 
L 320.050525 -136.379202 
L 321.579991 -136.650115 
L 323.109456 -136.706113 
L 324.638922 -136.522354 
L 326.168387 -136.101825 
L 327.697853 -135.473324 
L 329.227318 -134.684288 
L 330.756784 -133.789634 
L 332.286249 -132.838719 
L 333.815715 -131.863008 
L 335.34518 -130.867 
L 336.874646 -129.824358 
L 338.404111 -128.680112 
L 339.933577 -127.358554 
L 341.463042 -125.775283 
L 342.992508 -123.851057 
L 344.521974 -121.52487 
L 346.051439 -118.763931 
L 347.580905 -115.568856 
L 349.11037 -111.973418 
L 350.639836 -108.039262 
L 352.169301 -103.847078 
L 353.698767 -99.486332 
L 355.228232 -95.045756 
L 356.757698 -90.606241 
L 358.287163 -86.236867 
L 359.816629 -81.993816 
L 361.346094 -77.921294 
L 362.87556 -74.053399 
L 364.405025 -70.416119 
L 365.934491 -67.029019 
L 367.463956 -63.906481 
L 368.993422 -61.058504 
L 370.522887 -58.491123 
L 372.052353 -56.206494 
L 373.581818 -54.202704 
L 373.581818 -55.307114 
L 373.581818 -55.307114 
L 372.052353 -57.523444 
L 370.522887 -60.043521 
L 368.993422 -62.867868 
L 367.463956 -65.991936 
L 365.934491 -69.406855 
L 364.405025 -73.100205 
L 362.87556 -77.056364 
L 361.346094 -81.255952 
L 359.816629 -85.674073 
L 358.287163 -90.277437 
L 356.757698 -95.021005 
L 355.228232 -99.845238 
L 353.698767 -104.675224 
L 352.169301 -109.422699 
L 350.639836 -113.991425 
L 349.11037 -118.285649 
L 347.580905 -122.22051 
L 346.051439 -125.732623 
L 344.521974 -128.788644 
L 342.992508 -131.389773 
L 341.463042 -133.570768 
L 339.933577 -135.393181 
L 338.404111 -136.933881 
L 336.874646 -138.271075 
L 335.34518 -139.470634 
L 333.815715 -140.575456 
L 332.286249 -141.599829 
L 330.756784 -142.529687 
L 329.227318 -143.32846 
L 327.697853 -143.947203 
L 326.168387 -144.33692 
L 324.638922 -144.460653 
L 323.109456 -144.303031 
L 321.579991 -143.875536 
L 320.050525 -143.216722 
L 318.52106 -142.38767 
L 316.991594 -141.463992 
L 315.462129 -140.526265 
L 313.932663 -139.650903 
L 312.403198 -138.903062 
L 310.873732 -138.332481 
L 309.344267 -137.972342 
L 307.814801 -137.840667 
L 306.285336 -137.943382 
L 304.75587 -138.278123 
L 303.226405 -138.837899 
L 301.696939 -139.613904 
L 300.167474 -140.597121 
L 298.638008 -141.778944 
L 297.108543 -143.151568 
L 295.579077 -144.709003 
L 294.049612 -146.448885 
L 292.520146 -148.374468 
L 290.990681 -150.4957 
L 289.461215 -152.828547 
L 287.93175 -155.392375 
L 286.402284 -158.205891 
L 284.872819 -161.282606 
L 283.343353 -164.62689 
L 281.813888 -168.23145 
L 280.284422 -172.07666 
L 278.754957 -176.131729 
L 277.225491 -180.3574 
L 275.696026 -184.709631 
L 274.16656 -189.143575 
L 272.637095 -193.617108 
L 271.107629 -198.093199 
L 269.578164 -202.540629 
L 268.048698 -206.932984 
L 266.519233 -211.246271 
L 264.989767 -215.455904 
L 263.460302 -219.533903 
L 261.930836 -223.447016 
L 260.40137 -227.156102 
L 258.871905 -230.61673 
L 257.342439 -233.780533 
L 255.812974 -236.596622 
L 254.283508 -239.012321 
L 252.754043 -240.973032 
L 251.224577 -242.422018 
L 249.695112 -243.301578 
L 248.165646 -243.556364 
L 246.636181 -243.137675 
L 245.106715 -242.006611 
L 243.57725 -240.134859 
L 242.047784 -237.503652 
L 240.518319 -234.102462 
L 238.988853 -229.928963 
L 237.459388 -224.991041 
L 235.929922 -219.310707 
L 234.400457 -212.929039 
L 232.870991 -205.910862 
L 231.341526 -198.347525 
L 229.81206 -190.355245 
L 228.282595 -182.065181 
L 226.753129 -173.60507 
L 225.223664 -165.086539 
L 223.694198 -156.611941 
L 222.164733 -148.286338 
L 220.635267 -140.216855 
L 219.105802 -132.502395 
L 217.576336 -125.22268 
L 216.046871 -118.43122 
L 214.517405 -112.153481 
L 212.98794 -106.389943 
L 211.458474 -101.122639 
L 209.929009 -96.323149 
L 208.399543 -91.959892 
L 206.870078 -88.003114 
L 205.340612 -84.426882 
L 203.811147 -81.20835 
L 202.281681 -78.325308 
L 200.752216 -75.75339 
L 199.22275 -73.46417 
L 197.693285 -71.424931 
L 196.163819 -69.600129 
L 194.634354 -67.953894 
L 193.104888 -66.452522 
L 191.575423 -65.06608 
L 190.045957 -63.768859 
L 188.516492 -62.539061 
L 186.987026 -61.358363 
L 185.457561 -60.211747 
L 183.928095 -59.087643 
L 182.39863 -57.978232 
L 180.869164 -56.879755 
L 179.339698 -55.792678 
L 177.810233 -54.721564 
L 176.280767 -53.674563 
L 174.751302 -52.6625 
L 173.221836 -51.697659 
L 171.692371 -50.792433 
L 170.162905 -49.95808 
L 168.63344 -49.203744 
L 167.103974 -48.535806 
L 165.574509 -47.957509 
L 164.045043 -47.468792 
L 162.515578 -47.06635 
L 160.986112 -46.743957 
L 159.456647 -46.493063 
L 157.927181 -46.303616 
L 156.397716 -46.164955 
L 154.86825 -46.066657 
L 153.338785 -45.999206 
L 151.809319 -45.954429 
L 150.279854 -45.925682 
L 148.750388 -45.907838 
L 147.220923 -45.897133 
L 145.691457 -45.890926 
L 144.161992 -45.887449 
L 142.632526 -45.885567 
L 141.103061 -45.884582 
L 139.573595 -45.884085 
L 138.04413 -45.883842 
L 136.514664 -45.883728 
L 134.985199 -45.883676 
L 133.455733 -45.883653 
L 131.926268 -45.883643 
L 130.396802 -45.883639 
L 128.867337 -45.883637 
L 127.337871 -45.883637 
L 125.808406 -45.883636 
L 124.27894 -45.883636 
L 122.749475 -45.883636 
L 121.220009 -45.883636 
L 119.690544 -45.883636 
L 118.161078 -45.883636 
L 116.631613 -45.883637 
L 115.102147 -45.883637 
L 113.572682 -45.883639 
L 112.043216 -45.883643 
L 110.513751 -45.883652 
L 108.984285 -45.883676 
L 107.45482 -45.883731 
L 105.925354 -45.883855 
L 104.395889 -45.884124 
L 102.866423 -45.884688 
L 101.336958 -45.885825 
L 99.807492 -45.88804 
L 98.278026 -45.892199 
L 96.748561 -45.899729 
L 95.219095 -45.912865 
L 93.68963 -45.934945 
L 92.160164 -45.970685 
L 90.630699 -46.026369 
L 89.101233 -46.109825 
L 87.571768 -46.23006 
L 86.042302 -46.39642 
L 84.512837 -46.617219 
L 82.983371 -46.897906 
L 81.453906 -47.238971 
L 79.92444 -47.634002 
L 78.394975 -48.068378 
L 76.865509 -48.519121 
L 75.336044 -48.956264 
L 73.806578 -49.345805 
L 72.277113 -49.653935 
L 70.747647 -49.851824 
L 69.218182 -49.920068 
z
" style="stroke: #1f77b4; stroke-opacity: 0.2"/>
    </defs>
    <g clip-path="url(#p9c1ae825ca)">
     <use xlink:href="#m20de326172" x="0" y="288" style="fill: #1f77b4; fill-opacity: 0.2; stroke: #1f77b4; stroke-opacity: 0.2"/>
    </g>
   </g>
   <g id="PolyCollection_2">
    <defs>
     <path id="m54b05ccab4" d="M 69.218182 -49.452581 
L 69.218182 -48.69961 
L 70.747647 -48.652 
L 72.277113 -48.513945 
L 73.806578 -48.298982 
L 75.336044 -48.027222 
L 76.865509 -47.722254 
L 78.394975 -47.407798 
L 79.92444 -47.104761 
L 81.453906 -46.829171 
L 82.983371 -46.591231 
L 84.512837 -46.395412 
L 86.042302 -46.241374 
L 87.571768 -46.125315 
L 89.101233 -46.041434 
L 90.630699 -45.983212 
L 92.160164 -45.944365 
L 93.68963 -45.919432 
L 95.219095 -45.904028 
L 96.748561 -45.894863 
L 98.278026 -45.88961 
L 99.807492 -45.886708 
L 101.336958 -45.885163 
L 102.866423 -45.88437 
L 104.395889 -45.883977 
L 105.925354 -45.883789 
L 107.45482 -45.883703 
L 108.984285 -45.883664 
L 110.513751 -45.883648 
L 112.043216 -45.883641 
L 113.572682 -45.883638 
L 115.102147 -45.883637 
L 116.631613 -45.883637 
L 118.161078 -45.883636 
L 119.690544 -45.883636 
L 121.220009 -45.883636 
L 122.749475 -45.883636 
L 124.27894 -45.883636 
L 125.808406 -45.883636 
L 127.337871 -45.883637 
L 128.867337 -45.883637 
L 130.396802 -45.883638 
L 131.926268 -45.883639 
L 133.455733 -45.883644 
L 134.985199 -45.883655 
L 136.514664 -45.88368 
L 138.04413 -45.883735 
L 139.573595 -45.883853 
L 141.103061 -45.884096 
L 142.632526 -45.884583 
L 144.161992 -45.885526 
L 145.691457 -45.887287 
L 147.220923 -45.89047 
L 148.750388 -45.896032 
L 150.279854 -45.905427 
L 151.809319 -45.920766 
L 153.338785 -45.944979 
L 154.86825 -45.981922 
L 156.397716 -46.036415 
L 157.927181 -46.114122 
L 159.456647 -46.221257 
L 160.986112 -46.364102 
L 162.515578 -46.548343 
L 164.045043 -46.778342 
L 165.574509 -47.056447 
L 167.103974 -47.382528 
L 168.63344 -47.753865 
L 170.162905 -48.165498 
L 171.692371 -48.611026 
L 173.221836 -49.083768 
L 174.751302 -49.578087 
L 176.280767 -50.090655 
L 177.810233 -50.621442 
L 179.339698 -51.17431 
L 180.869164 -51.757159 
L 182.39863 -52.381707 
L 183.928095 -53.063065 
L 185.457561 -53.819394 
L 186.987026 -54.672155 
L 188.516492 -55.647546 
L 190.045957 -56.77888 
L 191.575423 -58.10804 
L 193.104888 -59.684441 
L 194.634354 -61.562356 
L 196.163819 -63.798096 
L 197.693285 -66.44735 
L 199.22275 -69.562415 
L 200.752216 -73.189123 
L 202.281681 -77.363574 
L 203.811147 -82.108861 
L 205.340612 -87.432048 
L 206.870078 -93.32167 
L 208.399543 -99.746057 
L 209.929009 -106.652848 
L 211.458474 -113.969999 
L 212.98794 -121.608447 
L 214.517405 -129.466336 
L 216.046871 -137.4344 
L 217.576336 -145.40188 
L 219.105802 -153.26219 
L 220.635267 -160.917531 
L 222.164733 -168.281792 
L 223.694198 -175.281327 
L 225.223664 -181.853661 
L 226.753129 -187.944635 
L 228.282595 -193.504972 
L 229.81206 -198.487492 
L 231.341526 -202.846204 
L 232.870991 -206.538234 
L 234.400457 -209.529081 
L 235.929922 -211.80052 
L 237.459388 -213.358312 
L 238.988853 -214.234848 
L 240.518319 -214.483474 
L 242.047784 -214.166739 
L 243.57725 -213.344214 
L 245.106715 -212.064031 
L 246.636181 -210.359295 
L 248.165646 -208.248733 
L 249.695112 -205.74051 
L 251.224577 -202.83811 
L 252.754043 -199.54717 
L 254.283508 -195.882098 
L 255.812974 -191.871278 
L 257.342439 -187.559894 
L 258.871905 -183.009794 
L 260.40137 -178.296324 
L 261.930836 -173.502637 
L 263.460302 -168.712559 
L 264.989767 -164.003742 
L 266.519233 -159.443076 
L 268.048698 -155.085438 
L 269.578164 -150.974811 
L 271.107629 -147.145134 
L 272.637095 -143.619304 
L 274.16656 -140.407632 
L 275.696026 -137.508283 
L 277.225491 -134.910885 
L 278.754957 -132.602581 
L 280.284422 -130.5747 
L 281.813888 -128.828007 
L 283.343353 -127.375018 
L 284.872819 -126.238769 
L 286.402284 -125.448484 
L 287.93175 -125.033314 
L 289.461215 -125.015786 
L 290.990681 -125.406705 
L 292.520146 -126.20293 
L 294.049612 -127.388542 
L 295.579077 -128.938369 
L 297.108543 -130.821643 
L 298.638008 -133.003978 
L 300.167474 -135.447557 
L 301.696939 -138.110657 
L 303.226405 -140.947616 
L 304.75587 -143.909768 
L 306.285336 -146.947408 
L 307.814801 -150.012555 
L 309.344267 -153.062058 
L 310.873732 -156.060477 
L 312.403198 -158.982057 
L 313.932663 -161.810872 
L 315.462129 -164.538153 
L 316.991594 -167.156503 
L 318.52106 -169.652478 
L 320.050525 -172.000244 
L 321.579991 -174.158626 
L 323.109456 -176.072215 
L 324.638922 -177.675731 
L 326.168387 -178.900114 
L 327.697853 -179.678805 
L 329.227318 -179.952987 
L 330.756784 -179.675045 
L 332.286249 -178.809938 
L 333.815715 -177.334577 
L 335.34518 -175.235711 
L 336.874646 -172.507223 
L 338.404111 -169.147999 
L 339.933577 -165.161545 
L 341.463042 -160.55799 
L 342.992508 -155.358247 
L 344.521974 -149.599205 
L 346.051439 -143.338271 
L 347.580905 -136.655617 
L 349.11037 -129.653071 
L 350.639836 -122.449493 
L 352.169301 -115.173399 
L 353.698767 -107.954183 
L 355.228232 -100.913553 
L 356.757698 -94.158541 
L 358.287163 -87.776979 
L 359.816629 -81.835681 
L 361.346094 -76.380966 
L 362.87556 -71.44076 
L 364.405025 -67.027327 
L 365.934491 -63.139787 
L 367.463956 -59.765963 
L 368.993422 -56.883656 
L 370.522887 -54.461834 
L 372.052353 -52.462152 
L 373.581818 -50.840916 
L 373.581818 -51.38874 
L 373.581818 -51.38874 
L 372.052353 -53.120905 
L 370.522887 -55.242917 
L 368.993422 -57.80101 
L 367.463956 -60.838466 
L 365.934491 -64.393595 
L 364.405025 -68.497078 
L 362.87556 -73.168617 
L 361.346094 -78.413199 
L 359.816629 -84.217512 
L 358.287163 -90.547038 
L 356.757698 -97.344214 
L 355.228232 -104.528078 
L 353.698767 -111.995806 
L 352.169301 -119.626467 
L 350.639836 -127.286995 
L 349.11037 -134.83993 
L 347.580905 -142.151993 
L 346.051439 -149.102257 
L 344.521974 -155.588632 
L 342.992508 -161.531687 
L 341.463042 -166.875391 
L 339.933577 -171.584985 
L 338.404111 -175.642761 
L 336.874646 -179.04293 
L 335.34518 -181.786844 
L 333.815715 -183.879781 
L 332.286249 -185.330038 
L 330.756784 -186.150469 
L 329.227318 -186.361752 
L 327.697853 -185.996039 
L 326.168387 -185.099363 
L 324.638922 -183.731593 
L 323.109456 -181.963535 
L 321.579991 -179.871754 
L 320.050525 -177.532295 
L 318.52106 -175.014679 
L 316.991594 -172.377138 
L 315.462129 -169.663474 
L 313.932663 -166.901555 
L 312.403198 -164.103679 
L 310.873732 -161.269519 
L 309.344267 -158.392037 
L 307.814801 -155.465389 
L 306.285336 -152.492553 
L 304.75587 -149.490694 
L 303.226405 -146.493399 
L 301.696939 -143.550029 
L 300.167474 -140.72286 
L 298.638008 -138.082666 
L 297.108543 -135.703089 
L 295.579077 -133.653949 
L 294.049612 -131.993968 
L 292.520146 -130.764229 
L 290.990681 -129.984281 
L 289.461215 -129.652098 
L 287.93175 -129.7475 
L 286.402284 -130.237712 
L 284.872819 -131.083902 
L 283.343353 -132.247824 
L 281.813888 -133.697661 
L 280.284422 -135.412147 
L 278.754957 -137.382398 
L 277.225491 -139.611543 
L 275.696026 -142.112728 
L 274.16656 -144.906213 
L 272.637095 -148.015853 
L 271.107629 -151.46475 
L 269.578164 -155.269577 
L 268.048698 -159.43355 
L 266.519233 -163.939483 
L 264.989767 -168.745593 
L 263.460302 -173.785685 
L 261.930836 -178.972768 
L 260.40137 -184.204123 
L 258.871905 -189.367188 
L 257.342439 -194.346803 
L 255.812974 -199.03413 
L 254.283508 -203.336233 
L 252.754043 -207.184244 
L 251.224577 -210.537772 
L 249.695112 -213.383997 
L 248.165646 -215.731333 
L 246.636181 -217.599213 
L 245.106715 -219.006825 
L 243.57725 -219.964064 
L 242.047784 -220.467175 
L 240.518319 -220.499685 
L 238.988853 -220.036887 
L 237.459388 -219.050585 
L 235.929922 -217.511403 
L 234.400457 -215.389145 
L 232.870991 -212.654329 
L 231.341526 -209.282469 
L 229.81206 -205.258934 
L 228.282595 -200.581812 
L 226.753129 -195.262473 
L 225.223664 -189.325163 
L 223.694198 -182.806907 
L 222.164733 -175.758259 
L 220.635267 -168.244627 
L 219.105802 -160.347492 
L 217.576336 -152.164622 
L 216.046871 -143.808558 
L 214.517405 -135.403003 
L 212.98794 -127.077231 
L 211.458474 -118.959117 
L 209.929009 -111.1677 
L 208.399543 -103.806337 
L 206.870078 -96.957346 
L 205.340612 -90.678774 
L 203.811147 -85.003515 
L 202.281681 -79.940654 
L 200.752216 -75.478562 
L 199.22275 -71.589095 
L 197.693285 -68.232179 
L 196.163819 -65.360213 
L 194.634354 -62.921911 
L 193.104888 -60.865413 
L 191.575423 -59.140521 
L 190.045957 -57.699819 
L 188.516492 -56.498406 
L 186.987026 -55.49269 
L 185.457561 -54.639999 
L 183.928095 -53.900172 
L 182.39863 -53.237929 
L 180.869164 -52.624386 
L 179.339698 -52.037597 
L 177.810233 -51.4626 
L 176.280767 -50.891226 
L 174.751302 -50.321625 
L 173.221836 -49.757398 
L 171.692371 -49.206307 
L 170.162905 -48.678623 
L 168.63344 -48.185339 
L 167.103974 -47.736457 
L 165.574509 -47.339626 
L 164.045043 -46.999285 
L 162.515578 -46.716377 
L 160.986112 -46.488604 
L 159.456647 -46.311069 
L 157.927181 -46.177154 
L 156.397716 -46.079421 
L 154.86825 -46.010427 
L 153.338785 -45.963319 
L 151.809319 -45.932215 
L 150.279854 -45.912356 
L 148.750388 -45.900096 
L 147.220923 -45.892779 
L 145.691457 -45.888557 
L 144.161992 -45.886202 
L 142.632526 -45.884932 
L 141.103061 -45.88427 
L 139.573595 -45.883936 
L 138.04413 -45.883774 
L 136.514664 -45.883697 
L 134.985199 -45.883663 
L 133.455733 -45.883647 
L 131.926268 -45.883641 
L 130.396802 -45.883638 
L 128.867337 -45.883637 
L 127.337871 -45.883637 
L 125.808406 -45.883636 
L 124.27894 -45.883636 
L 122.749475 -45.883636 
L 121.220009 -45.883636 
L 119.690544 -45.883636 
L 118.161078 -45.883636 
L 116.631613 -45.883637 
L 115.102147 -45.883637 
L 113.572682 -45.883638 
L 112.043216 -45.883642 
L 110.513751 -45.883651 
L 108.984285 -45.883672 
L 107.45482 -45.88372 
L 105.925354 -45.88383 
L 104.395889 -45.884068 
L 102.866423 -45.884566 
L 101.336958 -45.885572 
L 99.807492 -45.88753 
L 98.278026 -45.891207 
L 96.748561 -45.897865 
L 95.219095 -45.90948 
L 93.68963 -45.929003 
L 92.160164 -45.960603 
L 90.630699 -46.009838 
L 89.101233 -46.083628 
L 87.571768 -46.189938 
L 86.042302 -46.337031 
L 84.512837 -46.532258 
L 82.983371 -46.780436 
L 81.453906 -47.082 
L 79.92444 -47.43128 
L 78.394975 -47.815348 
L 76.865509 -48.213887 
L 75.336044 -48.600401 
L 73.806578 -48.944827 
L 72.277113 -49.21727 
L 70.747647 -49.39224 
L 69.218182 -49.452581 
z
" style="stroke: #ff7f0e; stroke-opacity: 0.2"/>
    </defs>
    <g clip-path="url(#p9c1ae825ca)">
     <use xlink:href="#m54b05ccab4" x="0" y="288" style="fill: #ff7f0e; fill-opacity: 0.2; stroke: #ff7f0e; stroke-opacity: 0.2"/>
    </g>
   </g>
   <g id="matplotlib.axis_1">
    <g id="xtick_1">
     <g id="line2d_1">
      <defs>
       <path id="m7dd15efa97" d="M 0 0 
L 0 3.5 
" style="stroke: #000000; stroke-width: 0.8"/>
      </defs>
      <g>
       <use xlink:href="#m7dd15efa97" x="95.877208" y="252" style="stroke: #000000; stroke-width: 0.8"/>
      </g>
     </g>
     <g id="text_1">
      <!-- $\mathdefault{10^{1}}$ -->
      <g transform="translate(87.077208 266.598437)scale(0.1 -0.1)">
       <defs>
        <path id="DejaVuSans-31" d="M 794 531 
L 1825 531 
L 1825 4091 
L 703 3866 
L 703 4441 
L 1819 4666 
L 2450 4666 
L 2450 531 
L 3481 531 
L 3481 0 
L 794 0 
L 794 531 
z
" transform="scale(0.015625)"/>
        <path id="DejaVuSans-30" d="M 2034 4250 
Q 1547 4250 1301 3770 
Q 1056 3291 1056 2328 
Q 1056 1369 1301 889 
Q 1547 409 2034 409 
Q 2525 409 2770 889 
Q 3016 1369 3016 2328 
Q 3016 3291 2770 3770 
Q 2525 4250 2034 4250 
z
M 2034 4750 
Q 2819 4750 3233 4129 
Q 3647 3509 3647 2328 
Q 3647 1150 3233 529 
Q 2819 -91 2034 -91 
Q 1250 -91 836 529 
Q 422 1150 422 2328 
Q 422 3509 836 4129 
Q 1250 4750 2034 4750 
z
" transform="scale(0.015625)"/>
       </defs>
       <use xlink:href="#DejaVuSans-31" transform="translate(0 0.684375)"/>
       <use xlink:href="#DejaVuSans-30" transform="translate(63.623047 0.684375)"/>
       <use xlink:href="#DejaVuSans-31" transform="translate(128.203125 38.965625)scale(0.7)"/>
      </g>
     </g>
    </g>
    <g id="xtick_2">
     <g id="line2d_2">
      <g>
       <use xlink:href="#m7dd15efa97" x="172.158095" y="252" style="stroke: #000000; stroke-width: 0.8"/>
      </g>
     </g>
     <g id="text_2">
      <!-- $\mathdefault{10^{3}}$ -->
      <g transform="translate(163.358095 266.598437)scale(0.1 -0.1)">
       <defs>
        <path id="DejaVuSans-33" d="M 2597 2516 
Q 3050 2419 3304 2112 
Q 3559 1806 3559 1356 
Q 3559 666 3084 287 
Q 2609 -91 1734 -91 
Q 1441 -91 1130 -33 
Q 819 25 488 141 
L 488 750 
Q 750 597 1062 519 
Q 1375 441 1716 441 
Q 2309 441 2620 675 
Q 2931 909 2931 1356 
Q 2931 1769 2642 2001 
Q 2353 2234 1838 2234 
L 1294 2234 
L 1294 2753 
L 1863 2753 
Q 2328 2753 2575 2939 
Q 2822 3125 2822 3475 
Q 2822 3834 2567 4026 
Q 2313 4219 1838 4219 
Q 1578 4219 1281 4162 
Q 984 4106 628 3988 
L 628 4550 
Q 988 4650 1302 4700 
Q 1616 4750 1894 4750 
Q 2613 4750 3031 4423 
Q 3450 4097 3450 3541 
Q 3450 3153 3228 2886 
Q 3006 2619 2597 2516 
z
" transform="scale(0.015625)"/>
       </defs>
       <use xlink:href="#DejaVuSans-31" transform="translate(0 0.765625)"/>
       <use xlink:href="#DejaVuSans-30" transform="translate(63.623047 0.765625)"/>
       <use xlink:href="#DejaVuSans-33" transform="translate(128.203125 39.046875)scale(0.7)"/>
      </g>
     </g>
    </g>
    <g id="xtick_3">
     <g id="line2d_3">
      <g>
       <use xlink:href="#m7dd15efa97" x="248.438982" y="252" style="stroke: #000000; stroke-width: 0.8"/>
      </g>
     </g>
     <g id="text_3">
      <!-- $\mathdefault{10^{5}}$ -->
      <g transform="translate(239.638982 266.598437)scale(0.1 -0.1)">
       <defs>
        <path id="DejaVuSans-35" d="M 691 4666 
L 3169 4666 
L 3169 4134 
L 1269 4134 
L 1269 2991 
Q 1406 3038 1543 3061 
Q 1681 3084 1819 3084 
Q 2600 3084 3056 2656 
Q 3513 2228 3513 1497 
Q 3513 744 3044 326 
Q 2575 -91 1722 -91 
Q 1428 -91 1123 -41 
Q 819 9 494 109 
L 494 744 
Q 775 591 1075 516 
Q 1375 441 1709 441 
Q 2250 441 2565 725 
Q 2881 1009 2881 1497 
Q 2881 1984 2565 2268 
Q 2250 2553 1709 2553 
Q 1456 2553 1204 2497 
Q 953 2441 691 2322 
L 691 4666 
z
" transform="scale(0.015625)"/>
       </defs>
       <use xlink:href="#DejaVuSans-31" transform="translate(0 0.684375)"/>
       <use xlink:href="#DejaVuSans-30" transform="translate(63.623047 0.684375)"/>
       <use xlink:href="#DejaVuSans-35" transform="translate(128.203125 38.965625)scale(0.7)"/>
      </g>
     </g>
    </g>
    <g id="xtick_4">
     <g id="line2d_4">
      <g>
       <use xlink:href="#m7dd15efa97" x="324.719869" y="252" style="stroke: #000000; stroke-width: 0.8"/>
      </g>
     </g>
     <g id="text_4">
      <!-- $\mathdefault{10^{7}}$ -->
      <g transform="translate(315.919869 266.598437)scale(0.1 -0.1)">
       <defs>
        <path id="DejaVuSans-37" d="M 525 4666 
L 3525 4666 
L 3525 4397 
L 1831 0 
L 1172 0 
L 2766 4134 
L 525 4134 
L 525 4666 
z
" transform="scale(0.015625)"/>
       </defs>
       <use xlink:href="#DejaVuSans-31" transform="translate(0 0.684375)"/>
       <use xlink:href="#DejaVuSans-30" transform="translate(63.623047 0.684375)"/>
       <use xlink:href="#DejaVuSans-37" transform="translate(128.203125 38.965625)scale(0.7)"/>
      </g>
     </g>
    </g>
    <g id="text_5">
     <!-- Length -->
     <g transform="translate(204.153125 280.276563)scale(0.1 -0.1)">
      <defs>
       <path id="DejaVuSans-4c" d="M 628 4666 
L 1259 4666 
L 1259 531 
L 3531 531 
L 3531 0 
L 628 0 
L 628 4666 
z
" transform="scale(0.015625)"/>
       <path id="DejaVuSans-65" d="M 3597 1894 
L 3597 1613 
L 953 1613 
Q 991 1019 1311 708 
Q 1631 397 2203 397 
Q 2534 397 2845 478 
Q 3156 559 3463 722 
L 3463 178 
Q 3153 47 2828 -22 
Q 2503 -91 2169 -91 
Q 1331 -91 842 396 
Q 353 884 353 1716 
Q 353 2575 817 3079 
Q 1281 3584 2069 3584 
Q 2775 3584 3186 3129 
Q 3597 2675 3597 1894 
z
M 3022 2063 
Q 3016 2534 2758 2815 
Q 2500 3097 2075 3097 
Q 1594 3097 1305 2825 
Q 1016 2553 972 2059 
L 3022 2063 
z
" transform="scale(0.015625)"/>
       <path id="DejaVuSans-6e" d="M 3513 2113 
L 3513 0 
L 2938 0 
L 2938 2094 
Q 2938 2591 2744 2837 
Q 2550 3084 2163 3084 
Q 1697 3084 1428 2787 
Q 1159 2491 1159 1978 
L 1159 0 
L 581 0 
L 581 3500 
L 1159 3500 
L 1159 2956 
Q 1366 3272 1645 3428 
Q 1925 3584 2291 3584 
Q 2894 3584 3203 3211 
Q 3513 2838 3513 2113 
z
" transform="scale(0.015625)"/>
       <path id="DejaVuSans-67" d="M 2906 1791 
Q 2906 2416 2648 2759 
Q 2391 3103 1925 3103 
Q 1463 3103 1205 2759 
Q 947 2416 947 1791 
Q 947 1169 1205 825 
Q 1463 481 1925 481 
Q 2391 481 2648 825 
Q 2906 1169 2906 1791 
z
M 3481 434 
Q 3481 -459 3084 -895 
Q 2688 -1331 1869 -1331 
Q 1566 -1331 1297 -1286 
Q 1028 -1241 775 -1147 
L 775 -588 
Q 1028 -725 1275 -790 
Q 1522 -856 1778 -856 
Q 2344 -856 2625 -561 
Q 2906 -266 2906 331 
L 2906 616 
Q 2728 306 2450 153 
Q 2172 0 1784 0 
Q 1141 0 747 490 
Q 353 981 353 1791 
Q 353 2603 747 3093 
Q 1141 3584 1784 3584 
Q 2172 3584 2450 3431 
Q 2728 3278 2906 2969 
L 2906 3500 
L 3481 3500 
L 3481 434 
z
" transform="scale(0.015625)"/>
       <path id="DejaVuSans-74" d="M 1172 4494 
L 1172 3500 
L 2356 3500 
L 2356 3053 
L 1172 3053 
L 1172 1153 
Q 1172 725 1289 603 
Q 1406 481 1766 481 
L 2356 481 
L 2356 0 
L 1766 0 
Q 1100 0 847 248 
Q 594 497 594 1153 
L 594 3053 
L 172 3053 
L 172 3500 
L 594 3500 
L 594 4494 
L 1172 4494 
z
" transform="scale(0.015625)"/>
       <path id="DejaVuSans-68" d="M 3513 2113 
L 3513 0 
L 2938 0 
L 2938 2094 
Q 2938 2591 2744 2837 
Q 2550 3084 2163 3084 
Q 1697 3084 1428 2787 
Q 1159 2491 1159 1978 
L 1159 0 
L 581 0 
L 581 4863 
L 1159 4863 
L 1159 2956 
Q 1366 3272 1645 3428 
Q 1925 3584 2291 3584 
Q 2894 3584 3203 3211 
Q 3513 2838 3513 2113 
z
" transform="scale(0.015625)"/>
      </defs>
      <use xlink:href="#DejaVuSans-4c"/>
      <use xlink:href="#DejaVuSans-65" x="53.962891"/>
      <use xlink:href="#DejaVuSans-6e" x="115.486328"/>
      <use xlink:href="#DejaVuSans-67" x="178.865234"/>
      <use xlink:href="#DejaVuSans-74" x="242.341797"/>
      <use xlink:href="#DejaVuSans-68" x="281.550781"/>
     </g>
    </g>
   </g>
   <g id="matplotlib.axis_2">
    <g id="ytick_1">
     <g id="line2d_5">
      <defs>
       <path id="m4568def4dd" d="M 0 0 
L -3.5 0 
" style="stroke: #000000; stroke-width: 0.8"/>
      </defs>
      <g>
       <use xlink:href="#m4568def4dd" x="54" y="242.116364" style="stroke: #000000; stroke-width: 0.8"/>
      </g>
     </g>
     <g id="text_6">
      <!-- 0.000 -->
      <g transform="translate(18.371875 245.915582)scale(0.1 -0.1)">
       <defs>
        <path id="DejaVuSans-2e" d="M 684 794 
L 1344 794 
L 1344 0 
L 684 0 
L 684 794 
z
" transform="scale(0.015625)"/>
       </defs>
       <use xlink:href="#DejaVuSans-30"/>
       <use xlink:href="#DejaVuSans-2e" x="63.623047"/>
       <use xlink:href="#DejaVuSans-30" x="95.410156"/>
       <use xlink:href="#DejaVuSans-30" x="159.033203"/>
       <use xlink:href="#DejaVuSans-30" x="222.65625"/>
      </g>
     </g>
    </g>
    <g id="ytick_2">
     <g id="line2d_6">
      <g>
       <use xlink:href="#m4568def4dd" x="54" y="214.09857" style="stroke: #000000; stroke-width: 0.8"/>
      </g>
     </g>
     <g id="text_7">
      <!-- 0.025 -->
      <g transform="translate(18.371875 217.897789)scale(0.1 -0.1)">
       <defs>
        <path id="DejaVuSans-32" d="M 1228 531 
L 3431 531 
L 3431 0 
L 469 0 
L 469 531 
Q 828 903 1448 1529 
Q 2069 2156 2228 2338 
Q 2531 2678 2651 2914 
Q 2772 3150 2772 3378 
Q 2772 3750 2511 3984 
Q 2250 4219 1831 4219 
Q 1534 4219 1204 4116 
Q 875 4013 500 3803 
L 500 4441 
Q 881 4594 1212 4672 
Q 1544 4750 1819 4750 
Q 2544 4750 2975 4387 
Q 3406 4025 3406 3419 
Q 3406 3131 3298 2873 
Q 3191 2616 2906 2266 
Q 2828 2175 2409 1742 
Q 1991 1309 1228 531 
z
" transform="scale(0.015625)"/>
       </defs>
       <use xlink:href="#DejaVuSans-30"/>
       <use xlink:href="#DejaVuSans-2e" x="63.623047"/>
       <use xlink:href="#DejaVuSans-30" x="95.410156"/>
       <use xlink:href="#DejaVuSans-32" x="159.033203"/>
       <use xlink:href="#DejaVuSans-35" x="222.65625"/>
      </g>
     </g>
    </g>
    <g id="ytick_3">
     <g id="line2d_7">
      <g>
       <use xlink:href="#m4568def4dd" x="54" y="186.080777" style="stroke: #000000; stroke-width: 0.8"/>
      </g>
     </g>
     <g id="text_8">
      <!-- 0.050 -->
      <g transform="translate(18.371875 189.879996)scale(0.1 -0.1)">
       <use xlink:href="#DejaVuSans-30"/>
       <use xlink:href="#DejaVuSans-2e" x="63.623047"/>
       <use xlink:href="#DejaVuSans-30" x="95.410156"/>
       <use xlink:href="#DejaVuSans-35" x="159.033203"/>
       <use xlink:href="#DejaVuSans-30" x="222.65625"/>
      </g>
     </g>
    </g>
    <g id="ytick_4">
     <g id="line2d_8">
      <g>
       <use xlink:href="#m4568def4dd" x="54" y="158.062984" style="stroke: #000000; stroke-width: 0.8"/>
      </g>
     </g>
     <g id="text_9">
      <!-- 0.075 -->
      <g transform="translate(18.371875 161.862203)scale(0.1 -0.1)">
       <use xlink:href="#DejaVuSans-30"/>
       <use xlink:href="#DejaVuSans-2e" x="63.623047"/>
       <use xlink:href="#DejaVuSans-30" x="95.410156"/>
       <use xlink:href="#DejaVuSans-37" x="159.033203"/>
       <use xlink:href="#DejaVuSans-35" x="222.65625"/>
      </g>
     </g>
    </g>
    <g id="ytick_5">
     <g id="line2d_9">
      <g>
       <use xlink:href="#m4568def4dd" x="54" y="130.045191" style="stroke: #000000; stroke-width: 0.8"/>
      </g>
     </g>
     <g id="text_10">
      <!-- 0.100 -->
      <g transform="translate(18.371875 133.84441)scale(0.1 -0.1)">
       <use xlink:href="#DejaVuSans-30"/>
       <use xlink:href="#DejaVuSans-2e" x="63.623047"/>
       <use xlink:href="#DejaVuSans-31" x="95.410156"/>
       <use xlink:href="#DejaVuSans-30" x="159.033203"/>
       <use xlink:href="#DejaVuSans-30" x="222.65625"/>
      </g>
     </g>
    </g>
    <g id="ytick_6">
     <g id="line2d_10">
      <g>
       <use xlink:href="#m4568def4dd" x="54" y="102.027398" style="stroke: #000000; stroke-width: 0.8"/>
      </g>
     </g>
     <g id="text_11">
      <!-- 0.125 -->
      <g transform="translate(18.371875 105.826616)scale(0.1 -0.1)">
       <use xlink:href="#DejaVuSans-30"/>
       <use xlink:href="#DejaVuSans-2e" x="63.623047"/>
       <use xlink:href="#DejaVuSans-31" x="95.410156"/>
       <use xlink:href="#DejaVuSans-32" x="159.033203"/>
       <use xlink:href="#DejaVuSans-35" x="222.65625"/>
      </g>
     </g>
    </g>
    <g id="ytick_7">
     <g id="line2d_11">
      <g>
       <use xlink:href="#m4568def4dd" x="54" y="74.009604" style="stroke: #000000; stroke-width: 0.8"/>
      </g>
     </g>
     <g id="text_12">
      <!-- 0.150 -->
      <g transform="translate(18.371875 77.808823)scale(0.1 -0.1)">
       <use xlink:href="#DejaVuSans-30"/>
       <use xlink:href="#DejaVuSans-2e" x="63.623047"/>
       <use xlink:href="#DejaVuSans-31" x="95.410156"/>
       <use xlink:href="#DejaVuSans-35" x="159.033203"/>
       <use xlink:href="#DejaVuSans-30" x="222.65625"/>
      </g>
     </g>
    </g>
    <g id="ytick_8">
     <g id="line2d_12">
      <g>
       <use xlink:href="#m4568def4dd" x="54" y="45.991811" style="stroke: #000000; stroke-width: 0.8"/>
      </g>
     </g>
     <g id="text_13">
      <!-- 0.175 -->
      <g transform="translate(18.371875 49.79103)scale(0.1 -0.1)">
       <use xlink:href="#DejaVuSans-30"/>
       <use xlink:href="#DejaVuSans-2e" x="63.623047"/>
       <use xlink:href="#DejaVuSans-31" x="95.410156"/>
       <use xlink:href="#DejaVuSans-37" x="159.033203"/>
       <use xlink:href="#DejaVuSans-35" x="222.65625"/>
      </g>
     </g>
    </g>
    <g id="text_14">
     <!-- Density -->
     <g transform="translate(12.292187 162.288594)rotate(-90)scale(0.1 -0.1)">
      <defs>
       <path id="DejaVuSans-44" d="M 1259 4147 
L 1259 519 
L 2022 519 
Q 2988 519 3436 956 
Q 3884 1394 3884 2338 
Q 3884 3275 3436 3711 
Q 2988 4147 2022 4147 
L 1259 4147 
z
M 628 4666 
L 1925 4666 
Q 3281 4666 3915 4102 
Q 4550 3538 4550 2338 
Q 4550 1131 3912 565 
Q 3275 0 1925 0 
L 628 0 
L 628 4666 
z
" transform="scale(0.015625)"/>
       <path id="DejaVuSans-73" d="M 2834 3397 
L 2834 2853 
Q 2591 2978 2328 3040 
Q 2066 3103 1784 3103 
Q 1356 3103 1142 2972 
Q 928 2841 928 2578 
Q 928 2378 1081 2264 
Q 1234 2150 1697 2047 
L 1894 2003 
Q 2506 1872 2764 1633 
Q 3022 1394 3022 966 
Q 3022 478 2636 193 
Q 2250 -91 1575 -91 
Q 1294 -91 989 -36 
Q 684 19 347 128 
L 347 722 
Q 666 556 975 473 
Q 1284 391 1588 391 
Q 1994 391 2212 530 
Q 2431 669 2431 922 
Q 2431 1156 2273 1281 
Q 2116 1406 1581 1522 
L 1381 1569 
Q 847 1681 609 1914 
Q 372 2147 372 2553 
Q 372 3047 722 3315 
Q 1072 3584 1716 3584 
Q 2034 3584 2315 3537 
Q 2597 3491 2834 3397 
z
" transform="scale(0.015625)"/>
       <path id="DejaVuSans-69" d="M 603 3500 
L 1178 3500 
L 1178 0 
L 603 0 
L 603 3500 
z
M 603 4863 
L 1178 4863 
L 1178 4134 
L 603 4134 
L 603 4863 
z
" transform="scale(0.015625)"/>
       <path id="DejaVuSans-79" d="M 2059 -325 
Q 1816 -950 1584 -1140 
Q 1353 -1331 966 -1331 
L 506 -1331 
L 506 -850 
L 844 -850 
Q 1081 -850 1212 -737 
Q 1344 -625 1503 -206 
L 1606 56 
L 191 3500 
L 800 3500 
L 1894 763 
L 2988 3500 
L 3597 3500 
L 2059 -325 
z
" transform="scale(0.015625)"/>
      </defs>
      <use xlink:href="#DejaVuSans-44"/>
      <use xlink:href="#DejaVuSans-65" x="77.001953"/>
      <use xlink:href="#DejaVuSans-6e" x="138.525391"/>
      <use xlink:href="#DejaVuSans-73" x="201.904297"/>
      <use xlink:href="#DejaVuSans-69" x="254.003906"/>
      <use xlink:href="#DejaVuSans-74" x="281.787109"/>
      <use xlink:href="#DejaVuSans-79" x="320.996094"/>
     </g>
    </g>
   </g>
   <g id="line2d_13">
    <path d="M 69.218182 238.442217 
L 70.747647 238.504337 
L 73.806578 238.964938 
L 78.394975 240.127711 
L 81.453906 240.882676 
L 84.512837 241.448623 
L 87.571768 241.801033 
L 92.160164 242.037128 
L 99.807492 242.112355 
L 150.279854 242.07891 
L 154.86825 241.95156 
L 157.927181 241.735025 
L 160.986112 241.328251 
L 164.045043 240.651646 
L 167.103974 239.647826 
L 170.162905 238.306064 
L 173.221836 236.668384 
L 177.810233 233.824549 
L 182.39863 230.712918 
L 186.987026 227.388229 
L 190.045957 224.991212 
L 193.104888 222.3418 
L 196.163819 219.268945 
L 197.693285 217.497741 
L 199.22275 215.522074 
L 200.752216 213.304942 
L 202.281681 210.811213 
L 203.811147 208.00904 
L 205.340612 204.869973 
L 206.870078 201.367722 
L 208.399543 197.476129 
L 209.929009 193.167326 
L 211.458474 188.411212 
L 212.98794 183.177157 
L 214.517405 177.438203 
L 216.046871 171.177282 
L 219.105802 157.112445 
L 222.164733 141.283797 
L 229.81206 99.487268 
L 232.870991 84.635792 
L 234.400457 78.045445 
L 235.929922 72.094471 
L 237.459388 66.817043 
L 238.988853 62.23007 
L 240.518319 58.338911 
L 242.047784 55.143056 
L 243.57725 52.640398 
L 245.106715 50.829133 
L 246.636181 49.706931 
L 248.165646 49.267865 
L 249.695112 49.498178 
L 251.224577 50.372306 
L 252.754043 51.850448 
L 254.283508 53.878479 
L 255.812974 56.390375 
L 257.342439 59.312663 
L 258.871905 62.57001 
L 261.930836 69.812317 
L 264.989767 77.66435 
L 269.578164 90.044224 
L 278.754957 115.136907 
L 281.813888 122.672339 
L 284.872819 129.303871 
L 286.402284 132.239936 
L 287.93175 134.924638 
L 289.461215 137.370885 
L 290.990681 139.596617 
L 292.520146 141.620894 
L 295.579077 145.127839 
L 297.108543 146.629677 
L 298.638008 147.967595 
L 300.167474 149.138684 
L 301.696939 150.136661 
L 303.226405 150.952889 
L 304.75587 151.577337 
L 306.285336 151.99976 
L 307.814801 152.2115 
L 309.344267 152.208209 
L 310.873732 151.99346 
L 312.403198 151.582706 
L 315.462129 150.312747 
L 318.52106 148.834736 
L 320.050525 148.202038 
L 321.579991 147.737175 
L 323.109456 147.495428 
L 324.638922 147.508496 
L 326.168387 147.780628 
L 327.697853 148.289737 
L 329.227318 148.993626 
L 332.286249 150.780726 
L 335.34518 152.831183 
L 338.404111 155.193004 
L 339.933577 156.624133 
L 341.463042 158.326974 
L 342.992508 160.379585 
L 344.521974 162.843243 
L 346.051439 165.751723 
L 347.580905 169.105317 
L 349.11037 172.870467 
L 352.169301 181.365112 
L 361.346094 208.411377 
L 364.405025 216.241838 
L 367.463956 223.050792 
L 368.993422 226.036814 
L 370.522887 228.732678 
L 372.052353 231.135031 
L 373.581818 233.245091 
L 373.581818 233.245091 
" clip-path="url(#p9c1ae825ca)" style="fill: none; stroke: #1f77b4; stroke-width: 1.5; stroke-linecap: square"/>
   </g>
   <g id="line2d_14">
    <path d="M 69.218182 238.923904 
L 72.277113 239.134393 
L 75.336044 239.686189 
L 82.983371 241.314167 
L 86.042302 241.710798 
L 90.630699 242.003475 
L 96.748561 242.103636 
L 127.337871 242.116363 
L 153.338785 242.045851 
L 157.927181 241.854362 
L 160.986112 241.573647 
L 164.045043 241.111187 
L 167.103974 240.440508 
L 170.162905 239.577939 
L 174.751302 238.050144 
L 180.869164 235.809228 
L 183.928095 234.518381 
L 186.987026 232.917578 
L 188.516492 231.927024 
L 190.045957 230.76065 
L 191.575423 229.375719 
L 193.104888 227.725073 
L 194.634354 225.757866 
L 196.163819 223.420846 
L 197.693285 220.660236 
L 199.22275 217.424245 
L 200.752216 213.666157 
L 202.281681 209.347886 
L 203.811147 204.443812 
L 205.340612 198.944589 
L 206.870078 192.860492 
L 208.399543 186.223803 
L 211.458474 171.535442 
L 216.046871 147.378521 
L 220.635267 123.418921 
L 223.694198 108.955883 
L 225.223664 102.410588 
L 226.753129 96.396446 
L 228.282595 90.956608 
L 229.81206 86.126787 
L 231.341526 81.935664 
L 232.870991 78.403718 
L 234.400457 75.540887 
L 235.929922 73.344038 
L 237.459388 71.795551 
L 238.988853 70.864132 
L 240.518319 70.508421 
L 242.047784 70.683043 
L 243.57725 71.345861 
L 245.106715 72.464572 
L 246.636181 74.020746 
L 248.165646 76.009967 
L 249.695112 78.437747 
L 251.224577 81.312059 
L 252.754043 84.634293 
L 254.283508 88.390834 
L 255.812974 92.547296 
L 258.871905 101.811509 
L 266.519233 126.30872 
L 269.578164 134.877806 
L 271.107629 138.695058 
L 272.637095 142.182422 
L 274.16656 145.343078 
L 275.696026 148.189495 
L 277.225491 150.738786 
L 278.754957 153.00751 
L 280.284422 155.006577 
L 281.813888 156.737166 
L 283.343353 158.188579 
L 284.872819 159.338665 
L 286.402284 160.156902 
L 287.93175 160.609593 
L 289.461215 160.666058 
L 290.990681 160.304507 
L 292.520146 159.516421 
L 294.049612 158.308745 
L 295.579077 156.703841 
L 297.108543 154.737634 
L 298.638008 152.456678 
L 301.696939 147.169657 
L 306.285336 138.280019 
L 310.873732 129.335002 
L 315.462129 120.899187 
L 318.52106 115.666422 
L 321.579991 110.98481 
L 323.109456 108.982125 
L 324.638922 107.296338 
L 326.168387 106.000261 
L 327.697853 105.162578 
L 329.227318 104.84263 
L 330.756784 105.087243 
L 332.286249 105.930012 
L 333.815715 107.392821 
L 335.34518 109.488722 
L 336.874646 112.224923 
L 338.404111 115.60462 
L 339.933577 119.626735 
L 341.463042 124.28331 
L 342.992508 129.555033 
L 344.521974 135.406082 
L 347.580905 148.596195 
L 350.639836 163.131756 
L 355.228232 185.279184 
L 358.287163 198.837991 
L 359.816629 204.973403 
L 361.346094 210.602918 
L 362.87556 215.695312 
L 364.405025 220.237797 
L 365.934491 224.233309 
L 367.463956 227.697786 
L 368.993422 230.657667 
L 370.522887 233.147624 
L 372.052353 235.208471 
L 373.581818 236.885172 
L 373.581818 236.885172 
" clip-path="url(#p9c1ae825ca)" style="fill: none; stroke: #ff7f0e; stroke-width: 1.5; stroke-linecap: square"/>
   </g>
   <g id="line2d_15"/>
   <g id="line2d_16"/>
   <g id="line2d_17">
    <path clip-path="url(#p9c1ae825ca)" style="fill: none; stroke-dasharray: 5.55,2.4; stroke-dashoffset: 0; stroke: #808080; stroke-width: 1.5"/>
   </g>
   <g id="line2d_18">
    <path d="M 201.533446 252 
L 201.533446 34.56 
" clip-path="url(#p9c1ae825ca)" style="fill: none; stroke-dasharray: 5.55,2.4; stroke-dashoffset: 0; stroke: #808080; stroke-width: 1.5"/>
   </g>
   <g id="line2d_19">
    <path d="M 235.18288 252 
L 235.18288 34.56 
" clip-path="url(#p9c1ae825ca)" style="fill: none; stroke-dasharray: 5.55,2.4; stroke-dashoffset: 0; stroke: #808080; stroke-width: 1.5"/>
   </g>
   <g id="line2d_20">
    <path d="M 300.94985 252 
L 300.94985 34.56 
" clip-path="url(#p9c1ae825ca)" style="fill: none; stroke-dasharray: 5.55,2.4; stroke-dashoffset: 0; stroke: #808080; stroke-width: 1.5"/>
   </g>
   <g id="line2d_21">
    <path d="M 359.069543 252 
L 359.069543 34.56 
" clip-path="url(#p9c1ae825ca)" style="fill: none; stroke-dasharray: 5.55,2.4; stroke-dashoffset: 0; stroke: #808080; stroke-width: 1.5"/>
   </g>
   <g id="line2d_22">
    <path clip-path="url(#p9c1ae825ca)" style="fill: none; stroke-dasharray: 5.55,2.4; stroke-dashoffset: 0; stroke: #808080; stroke-width: 1.5"/>
   </g>
   <g id="patch_3">
    <path d="M 54 252 
L 54 34.56 
" style="fill: none; stroke: #000000; stroke-width: 0.8; stroke-linejoin: miter; stroke-linecap: square"/>
   </g>
   <g id="patch_4">
    <path d="M 388.8 252 
L 388.8 34.56 
" style="fill: none; stroke: #000000; stroke-width: 0.8; stroke-linejoin: miter; stroke-linecap: square"/>
   </g>
   <g id="patch_5">
    <path d="M 54 252 
L 388.8 252 
" style="fill: none; stroke: #000000; stroke-width: 0.8; stroke-linejoin: miter; stroke-linecap: square"/>
   </g>
   <g id="patch_6">
    <path d="M 54 34.56 
L 388.8 34.56 
" style="fill: none; stroke: #000000; stroke-width: 0.8; stroke-linejoin: miter; stroke-linecap: square"/>
   </g>
   <g id="legend_1">
    <g id="patch_7">
     <path d="M 61 86.594375 
L 99.3625 86.594375 
Q 101.3625 86.594375 101.3625 84.594375 
L 101.3625 41.56 
Q 101.3625 39.56 99.3625 39.56 
L 61 39.56 
Q 59 39.56 59 41.56 
L 59 84.594375 
Q 59 86.594375 61 86.594375 
z
" style="fill: #ffffff; opacity: 0.8; stroke: #cccccc; stroke-linejoin: miter"/>
    </g>
    <g id="text_15">
     <!-- Class -->
     <g transform="translate(67.027344 51.158438)scale(0.1 -0.1)">
      <defs>
       <path id="DejaVuSans-43" d="M 4122 4306 
L 4122 3641 
Q 3803 3938 3442 4084 
Q 3081 4231 2675 4231 
Q 1875 4231 1450 3742 
Q 1025 3253 1025 2328 
Q 1025 1406 1450 917 
Q 1875 428 2675 428 
Q 3081 428 3442 575 
Q 3803 722 4122 1019 
L 4122 359 
Q 3791 134 3420 21 
Q 3050 -91 2638 -91 
Q 1578 -91 968 557 
Q 359 1206 359 2328 
Q 359 3453 968 4101 
Q 1578 4750 2638 4750 
Q 3056 4750 3426 4639 
Q 3797 4528 4122 4306 
z
" transform="scale(0.015625)"/>
       <path id="DejaVuSans-6c" d="M 603 4863 
L 1178 4863 
L 1178 0 
L 603 0 
L 603 4863 
z
" transform="scale(0.015625)"/>
       <path id="DejaVuSans-61" d="M 2194 1759 
Q 1497 1759 1228 1600 
Q 959 1441 959 1056 
Q 959 750 1161 570 
Q 1363 391 1709 391 
Q 2188 391 2477 730 
Q 2766 1069 2766 1631 
L 2766 1759 
L 2194 1759 
z
M 3341 1997 
L 3341 0 
L 2766 0 
L 2766 531 
Q 2569 213 2275 61 
Q 1981 -91 1556 -91 
Q 1019 -91 701 211 
Q 384 513 384 1019 
Q 384 1609 779 1909 
Q 1175 2209 1959 2209 
L 2766 2209 
L 2766 2266 
Q 2766 2663 2505 2880 
Q 2244 3097 1772 3097 
Q 1472 3097 1187 3025 
Q 903 2953 641 2809 
L 641 3341 
Q 956 3463 1253 3523 
Q 1550 3584 1831 3584 
Q 2591 3584 2966 3190 
Q 3341 2797 3341 1997 
z
" transform="scale(0.015625)"/>
      </defs>
      <use xlink:href="#DejaVuSans-43"/>
      <use xlink:href="#DejaVuSans-6c" x="69.824219"/>
      <use xlink:href="#DejaVuSans-61" x="97.607422"/>
      <use xlink:href="#DejaVuSans-73" x="158.886719"/>
      <use xlink:href="#DejaVuSans-73" x="210.986328"/>
     </g>
    </g>
    <g id="line2d_23">
     <path d="M 63 62.336563 
L 73 62.336563 
L 83 62.336563 
" style="fill: none; stroke: #1f77b4; stroke-width: 1.5; stroke-linecap: square"/>
    </g>
    <g id="text_16">
     <!-- 0 -->
     <g transform="translate(91 65.836563)scale(0.1 -0.1)">
      <use xlink:href="#DejaVuSans-30"/>
     </g>
    </g>
    <g id="line2d_24">
     <path d="M 63 77.014688 
L 73 77.014688 
L 83 77.014688 
" style="fill: none; stroke: #ff7f0e; stroke-width: 1.5; stroke-linecap: square"/>
    </g>
    <g id="text_17">
     <!-- 1 -->
     <g transform="translate(91 80.514688)scale(0.1 -0.1)">
      <use xlink:href="#DejaVuSans-31"/>
     </g>
    </g>
   </g>
  </g>
 </g>
 <defs>
  <clipPath id="p9c1ae825ca">
   <rect x="54" y="34.56" width="334.8" height="217.44"/>
  </clipPath>
 </defs>
</svg>
